<svg width="120" height="24" viewBox="0 0 120 24" fill="none" xmlns="http://www.w3.org/2000/svg">
<path d="M15.1751 17.6315H5.25542L2.70538 23.6953H0V23.6327C0.2177 23.3527 0.901868 22.4202 1.74115 20.4611L9.07991 3.38932L8.73794 2.58133C8.20957 1.27513 7.74242 0.497309 7.2764 0.062362V0H11.381L20.181 20.4933C21.0203 22.4209 21.5807 23.354 21.8292 23.6336V23.696H17.7557L15.1751 17.6315ZM14.3975 15.8279L10.1684 5.96998L6.03211 15.8279H14.3975ZM33.117 11.568C34.9828 10.8528 36.289 9.11098 36.289 6.34369C36.289 3.04735 33.8943 1.5239 31.0649 1.5239H28.1105V23.6958H23.8194V23.6334C24.0371 23.2291 24.5346 22.3585 24.5346 20.3688V3.32673C24.5346 1.33659 24.0371 0.466015 23.8194 0.0616817V0H32.5265C35.916 0 40.0206 1.61688 40.0206 6.0947C40.0206 10.2616 36.88 12.0654 33.7079 12.4073L39.8026 20.9589C40.7982 22.3583 41.917 23.3218 42.3216 23.6332V23.6955H37.6259L29.199 11.7241L32.2775 10.3868L33.117 11.568ZM49.6288 23.6334V23.6958H44.6224V23.6334C44.8401 23.2288 45.3377 22.3583 45.3377 20.3688V3.32673C45.3377 1.33659 44.8403 0.466015 44.6224 0.0616817V0H49.6288V0.062362C49.4116 0.466695 48.9136 1.33727 48.9136 3.32741V20.3686C48.9136 22.3583 49.4116 23.2288 49.6288 23.6332V23.6334ZM63.9023 23.6334V23.6958H58.8952V23.6334C59.1129 23.2288 59.6104 22.3583 59.6104 20.3688V1.5239C56.625 1.89694 53.4844 2.89178 52.4585 3.54511L52.9247 0H69.8729L70.3385 3.54489C69.3436 2.89178 66.2026 1.89671 63.1864 1.52345V20.3681C63.187 22.3583 63.6843 23.2288 63.9023 23.6334V23.6334ZM87.9087 23.6958H70.7435V23.6334L83.2756 1.61688C78.829 1.83458 75.7193 2.26952 72.889 3.54443L73.3552 0H88.1573V0.0621353L75.625 22.1102C80.7251 21.9542 85.1716 21.6122 88.375 20.1506L87.9087 23.6958ZM96.211 23.6334V23.6958H91.2046V23.6334C91.4218 23.2288 91.9192 22.3583 91.9192 20.3688V3.32673C91.9192 1.33659 91.4218 0.466015 91.2046 0.0616817V0H96.211V0.062362C95.9938 0.466695 95.4965 1.33727 95.4965 3.32741V20.3686C95.4958 22.3583 95.9931 23.2288 96.2108 23.6332L96.211 23.6334ZM113.345 17.6315H103.425L100.875 23.6953H98.1694V23.6327C98.3871 23.3527 99.0717 22.4202 99.9106 20.4611L107.25 3.38932L106.908 2.58133C106.379 1.27513 105.913 0.497309 105.446 0.062362V0H109.551L118.352 20.4933C119.191 22.4209 119.751 23.354 120 23.6336V23.696H115.926L113.345 17.6315ZM112.567 15.8279L108.338 5.96998L104.202 15.8279H112.567Z" fill="white"/>
</svg>
