<svg width="120" height="32" viewBox="0 0 120 32" fill="none" xmlns="http://www.w3.org/2000/svg">
<g clip-path="url(#clip0_201_69)">
<path fill-rule="evenodd" clip-rule="evenodd" d="M13.6209 0L27.2426 7.86429V23.592L13.62 31.4554L0 23.592V7.86429L3.98571 5.56286V21.2914L13.6209 26.8526L23.2551 21.2914V10.1657L13.62 4.60286L7.884 7.91657V3.31371L13.62 0H13.6209ZM19.3577 15.7277C19.3577 16.4811 19.2093 17.2271 18.921 17.9231C18.6327 18.6191 18.2101 19.2516 17.6774 19.7843C17.1447 20.317 16.5123 20.7396 15.8163 21.0279C15.1202 21.3162 14.3742 21.4646 13.6209 21.4646C12.486 21.4647 11.3765 21.1284 10.4328 20.4979C9.48914 19.8675 8.75359 18.9714 8.31921 17.923C7.88483 16.8745 7.77113 15.7208 7.99249 14.6077C8.21386 13.4946 8.76034 12.4722 9.56282 11.6697C10.3653 10.8672 11.3878 10.3207 12.5008 10.0993C13.6139 9.87799 14.7677 9.99168 15.8161 10.4261C16.8646 10.8604 17.7607 11.596 18.3911 12.5397C19.0215 13.4834 19.3579 14.5928 19.3577 15.7277V15.7277ZM116.283 25.8977V0H120V25.8977H116.283V25.8977ZM82.8111 25.8977V5.99229H93.462V9.63428H86.5277V25.896H82.8111V25.8977ZM48.6634 9.17829C52.1829 9.17829 55.0474 12.2263 55.0474 15.972C55.0474 19.74 52.2771 22.6903 48.7389 22.6903C45.1766 22.6903 42.2786 19.6757 42.2786 15.972C42.2786 12.2263 45.1431 9.17829 48.6643 9.17829H48.6634ZM48.6643 5.68886C46.3294 5.68886 44.1711 6.45686 42.4054 7.91229V0.000857143H38.688V25.8977H42.0051L42.51 24.0746C44.2826 25.5026 46.4331 26.2569 48.7389 26.2569C54.4029 26.2569 58.8411 21.7397 58.8411 15.9729C58.8411 10.3037 54.276 5.68971 48.6634 5.68971L48.6643 5.68886ZM70.6646 9.17914C73.5146 9.17914 76.0457 11.1857 76.8566 14.0734H64.4666C65.1026 11.3203 67.8026 9.17914 70.6646 9.17914V9.17914ZM70.6646 5.68971C73.44 5.68971 76.0843 6.83314 77.9203 8.82686C79.9303 11.0109 80.8826 14.0846 80.6023 17.4823L80.5946 17.5629H64.386C64.902 20.4943 67.5823 22.6929 70.6646 22.6929C72.4903 22.6929 74.2303 21.8657 75.4389 20.4257L75.4663 20.3957H79.806L79.746 20.5209C78.282 23.9383 74.5886 26.2577 70.6646 26.2577C65.052 26.2577 60.486 21.6446 60.486 15.9737C60.486 13.1991 61.5463 10.6063 63.4706 8.67257C64.4119 7.72311 65.5328 6.97042 66.7679 6.45832C68.0029 5.94622 69.3276 5.68495 70.6646 5.68971V5.68971ZM104.926 18.5966L110.714 5.89114H114.8L114.742 6.01543L103.155 31.4554H99.0694L99.1269 31.3294L102.864 23.1266L95.2474 5.89114H99.312L104.926 18.5966V18.5966Z" fill="white"/>
</g>
<defs>
<clipPath id="clip0_201_69">
<rect width="120" height="31.7143" fill="white"/>
</clipPath>
</defs>
</svg>
