<svg width="140" height="42" viewBox="0 0 140 42" fill="none" xmlns="http://www.w3.org/2000/svg">
<path fill-rule="evenodd" clip-rule="evenodd" d="M28.5246 7.42084C28.9431 6.6685 29.1523 5.84776 29.1523 5.02702C29.1523 2.25703 26.8508 0 24.0262 0C21.6899 0 19.6325 1.57308 19.0745 3.79592L17.6448 3.76172C7.91576 3.76172 0 11.4903 0 21.0656C0 25.5797 1.8133 29.9228 5.02145 33.1715C4.3589 34.0264 3.97531 35.0866 4.01018 36.1809C4.01018 38.9509 6.31168 41.1737 9.13625 41.2079C11.2983 41.2079 13.1464 39.8742 13.9136 37.9934C15.169 38.2669 16.4243 38.4037 17.7146 38.4037C27.4785 38.4037 35.3594 30.6409 35.3594 21.0998C35.3245 15.7308 32.8138 10.7038 28.5246 7.42084ZM24.0262 8.10479C23.7473 8.10479 23.5032 8.07059 23.2242 8.0022L21.1319 14.0209L24.2355 13.5422L19.8417 20.4843L23.4683 19.6293L11.2634 33.9239C12.4141 35.0182 12.5536 36.7964 11.5772 38.0275C10.6008 39.2587 8.78753 39.5664 7.42756 38.7457C6.06758 37.8908 5.57939 36.1809 6.31168 34.7788C7.04398 33.3767 8.75266 32.7269 10.2521 33.3083L13.7044 25.8875L10.3219 26.7766L15.8315 19.048L12.449 19.8345L22.0386 7.31825C21.0273 6.49751 20.6437 5.12961 21.0971 3.89851C21.5504 2.6674 22.736 1.88086 24.0262 1.88086C25.7698 1.88086 27.1646 3.24876 27.1646 4.95863C27.1646 6.7027 25.7698 8.07059 24.0262 8.10479Z" fill="white"/>
<path fill-rule="evenodd" clip-rule="evenodd" d="M45.1251 8.34473H52.3085C55.0982 8.37892 57.1556 9.54164 58.5505 11.8329C59.0387 12.6194 59.3525 13.4401 59.492 14.2951C59.5966 15.15 59.6315 16.6205 59.6315 18.7066C59.6315 20.9294 59.5617 22.5025 59.3874 23.3916C59.3176 23.802 59.213 24.2123 59.0387 24.5885C58.8643 24.9305 58.69 25.2725 58.4459 25.6486C57.8531 26.6404 57.0161 27.4269 55.9351 28.0766C54.889 28.7606 53.5639 29.1026 52.0296 29.1026H45.0902V8.34473H45.1251ZM48.2286 26.1616H51.9598C53.7034 26.1616 54.9587 25.546 55.7608 24.3491C56.1095 23.9046 56.3187 23.3232 56.4233 22.6393C56.4931 21.9553 56.5628 20.69 56.5628 18.8433L56.4233 14.9448C56.3187 14.1583 56.0398 13.5427 55.6213 13.0298C54.7495 11.8329 53.529 11.2515 51.9598 11.2857H48.2286V26.1616ZM73.301 27.5637C72.3246 28.658 71.0692 29.2394 69.5349 29.2736C68.5934 29.2394 67.7913 29.0342 67.1637 28.658C66.5011 28.2818 66.0129 27.8715 65.6642 27.4611C65.2806 26.9823 65.0016 26.3668 64.8273 25.6828C64.6529 24.9989 64.5483 23.6652 64.5483 21.7159C64.5483 19.7325 64.6529 18.3988 64.8273 17.6806C65.0016 16.9967 65.2806 16.4153 65.6642 15.9366C66.0129 15.4578 66.5011 15.0474 67.1637 14.7055C67.7913 14.3635 68.5934 14.1583 69.5349 14.1583C70.9995 14.1583 72.2548 14.7396 73.301 15.9024V14.3293H76.2302V28.7606C76.1953 30.9834 75.5676 32.6249 74.3471 33.6508C73.1266 34.711 71.6272 35.2581 69.9185 35.2581C67.9308 35.2239 66.257 34.4032 64.8622 32.7959L67.1288 30.9492C67.5124 31.3254 67.9657 31.599 68.419 31.8384C68.8723 32.1119 69.4303 32.2487 69.9534 32.2829C70.9646 32.2829 71.7667 32.0094 72.3595 31.428C72.9523 30.8466 73.2661 30.0601 73.301 29.0684V27.5637ZM67.5124 21.7159L67.617 24.0755C67.6867 24.5201 67.8262 24.8963 68.0703 25.2041C68.2795 25.4776 68.5585 25.717 68.977 25.9222C69.3605 26.1958 69.8487 26.3326 70.4067 26.3326C70.9646 26.3326 71.4528 26.1958 71.8364 25.9222C72.22 25.717 72.4989 25.4434 72.7082 25.2041C72.9523 24.8621 73.1266 24.4859 73.1964 24.0755C73.2661 23.631 73.2661 22.8786 73.2661 21.7159L73.1964 19.3221C73.1266 18.8775 72.9523 18.5014 72.7082 18.2278C72.4989 17.9542 72.22 17.7148 71.8364 17.4412C71.4528 17.2361 70.9646 17.0993 70.4067 17.0993C69.8487 17.1335 69.3605 17.2361 68.977 17.4412C68.5585 17.7148 68.2795 17.9542 68.0703 18.2278C67.8262 18.5014 67.6867 18.8775 67.617 19.3221C67.5472 19.7667 67.5124 20.5874 67.5124 21.7159ZM82.0188 14.3293H84.948V15.9024H85.0177C85.9941 14.7396 87.2494 14.1583 88.8186 14.1583C89.9345 14.1583 91.0504 14.5687 91.8873 15.2868L89.7602 17.8516C89.1325 17.3729 88.5048 17.0993 87.8423 17.0993C87.11 17.0993 86.4474 17.3387 85.9243 17.8516C85.3315 18.3304 85.0177 19.1169 84.9828 20.2112V29.1368H82.0536L82.0188 14.3293ZM102.209 27.8031H102.139C101.86 28.316 101.407 28.6922 100.884 28.9316C100.326 29.171 99.559 29.3078 98.5477 29.3078C96.9088 29.2736 95.6534 28.8632 94.7816 28.0083C93.8401 27.1875 93.3868 26.0932 93.3868 24.7937C93.3868 23.5626 93.8052 22.5367 94.6073 21.7159C95.4093 20.8952 96.5949 20.4506 98.1641 20.4506H102.244V18.8775C102.279 17.578 101.268 16.9283 99.2451 16.9625C98.5128 16.9625 97.92 17.0309 97.5016 17.2019C97.0482 17.3729 96.6995 17.7148 96.4554 18.1252L94.1539 16.3469C95.2698 14.8764 96.9088 14.1583 99.0708 14.1925C100.919 14.1583 102.384 14.5345 103.465 15.2526C104.546 16.005 105.103 17.2703 105.138 19.0827V29.2052H102.209V27.8031ZM102.209 22.8444H98.6872C96.9785 22.8786 96.1416 23.46 96.1416 24.6227C96.1416 25.1357 96.3508 25.546 96.8042 25.9222C97.2226 26.2984 97.92 26.5036 98.8964 26.5036C100.117 26.5378 100.989 26.3668 101.512 26.059C101.965 25.7512 102.209 25.0331 102.209 23.9046V22.8444ZM110.892 14.3293H113.821V15.8682C114.798 14.7738 116.053 14.1925 117.587 14.1583C119.366 14.1925 120.691 14.8422 121.493 16.1075C121.911 16.5863 122.155 17.1677 122.33 17.9542C122.469 18.7066 122.539 19.9719 122.539 21.7843C122.539 23.5284 122.469 24.7937 122.33 25.546C122.19 26.2984 121.911 26.9139 121.493 27.4269C121.074 28.0083 120.551 28.4528 119.889 28.7948C119.226 29.1368 118.459 29.342 117.552 29.342C116.855 29.342 116.158 29.171 115.53 28.829C114.867 28.5212 114.275 28.0766 113.786 27.5979V35.1555H110.892V14.3293ZM116.716 26.3326C117.413 26.3326 117.971 26.1958 118.355 25.9222C118.738 25.6486 119.052 25.3067 119.226 24.8621C119.436 24.3833 119.54 23.8704 119.61 23.3916L119.645 21.7501L119.61 20.0061C119.54 19.4931 119.436 18.9801 119.226 18.5356C119.052 18.091 118.773 17.7148 118.355 17.4754C117.936 17.2361 117.413 17.1335 116.716 17.1335C116.053 17.1335 115.53 17.2703 115.146 17.5438C114.763 17.8174 114.449 18.1936 114.275 18.6382C114.1 19.1169 113.961 19.5957 113.926 20.1086C113.856 20.6558 113.856 21.2372 113.856 21.7843C113.856 22.2973 113.891 22.8444 113.926 23.3574C113.996 23.9046 114.1 24.4175 114.275 24.8621C114.449 25.3067 114.763 25.6828 115.146 25.9564C115.53 26.1616 116.053 26.3326 116.716 26.3326ZM127.839 8.34473H130.769V15.9024H130.838C131.745 14.7738 133.14 14.1241 134.639 14.1583C135.86 14.1583 136.941 14.6029 137.952 15.4578C138.963 16.3469 139.452 17.6122 139.521 19.2879V29.1026H136.592V20.2796C136.592 19.2537 136.313 18.4672 135.79 17.92C135.267 17.3729 134.57 17.0993 133.733 17.0993C132.896 17.0993 132.198 17.3729 131.64 17.92C131.083 18.4672 130.804 19.2537 130.804 20.2796V29.1026H127.874L127.839 8.34473Z" fill="white"/>
</svg>
