<svg width="116" height="32" viewBox="0 0 116 32" fill="none" xmlns="http://www.w3.org/2000/svg">
<path fill-rule="evenodd" clip-rule="evenodd" d="M25.0427 4.20364H32.2938C34.4682 4.20364 36.2336 5.96862 36.2336 8.14296V26.528C36.2336 28.7023 34.4682 30.4677 32.2938 30.4677H23.2927C23.4817 30.4666 23.6626 30.3911 23.7962 30.2574C23.9298 30.1237 24.0053 29.9427 24.0062 29.7538C24.0062 29.5406 23.9106 29.3382 23.7461 29.2027L18.57 24.9471C18.4421 24.8425 18.282 24.7853 18.1168 24.7853C17.9516 24.7853 17.7914 24.8425 17.6636 24.9471L15.9996 26.3152L11.313 22.4619C11.1852 22.3573 11.0251 22.3001 10.8598 22.3001C10.6946 22.3001 10.5345 22.3573 10.4066 22.4619L2.74535 29.2027C2.58078 29.3382 2.51096 29.5148 2.51096 29.728C2.51096 29.9429 2.60031 30.1448 2.74577 30.2832C1.15408 29.777 0 28.2863 0 26.528V8.14296C0 5.96862 1.7654 4.20364 3.93974 4.20364H11.1855L11.1726 4.2319L11.1294 4.33455L10.9939 4.72935L10.9515 4.86483L10.769 5.67397L10.7441 5.8161L10.6639 6.62649L10.6531 6.84883L10.6514 6.92696L10.6593 7.29849L10.6776 7.51626L10.7229 7.85704L10.7803 8.16374L10.8484 8.44634L10.9369 8.75221L11.1672 9.39969L11.2428 9.59418L11.6434 10.4403L11.7851 10.7005L12.2481 11.4955L12.4256 11.7822L13.0718 12.7343L13.1653 12.8603L14.0064 13.9549L14.2782 14.2919L15.2386 15.4149L15.4356 15.631L16.2277 16.4825L16.5411 16.8075L17.0593 17.322L16.9554 17.4088L16.8906 17.4674C16.7144 17.6317 16.5476 17.8058 16.3911 17.989C16.3163 18.0775 16.2444 18.1689 16.1766 18.2633C16.0727 18.4075 15.9801 18.5588 15.899 18.7167C15.8577 18.7987 15.8205 18.8827 15.7876 18.9685C15.7033 19.1878 15.6526 19.4186 15.6372 19.653L15.6343 19.8554C15.6418 20.1405 15.6999 20.4222 15.8059 20.6874C15.9136 20.956 16.0706 21.2021 16.2689 21.413C16.4131 21.5668 16.5772 21.7002 16.7568 21.8103C16.9101 21.9042 17.073 21.9811 17.2426 22.0397C17.4205 22.1008 17.6046 22.1428 17.7916 22.1648C17.9902 22.1885 18.1905 22.1901 18.3896 22.1702H18.3917C18.7221 22.1381 19.0432 22.0427 19.3376 21.8892C19.4647 21.8223 19.5861 21.7442 19.6991 21.6557C20.0237 21.403 20.2751 21.0685 20.4276 20.6865C20.5469 20.3889 20.6055 20.0704 20.6001 19.7498L20.591 19.5823C20.5693 19.3611 20.5164 19.1441 20.4339 18.9378C20.3982 18.8478 20.3577 18.7599 20.3125 18.6743C20.2704 18.594 20.2249 18.5155 20.1762 18.4391C20.1291 18.3651 20.0793 18.2929 20.027 18.2225C19.9784 18.1569 19.9281 18.0924 19.8762 18.0293C19.7032 17.8228 19.5171 17.6278 19.3189 17.4454L19.1788 17.3261L19.4161 17.0917L20.4364 16.0266L20.7892 15.6393L21.3373 15.0221L21.6939 14.6053L22.203 13.9857L22.5471 13.5526L23.0529 12.8765L23.308 12.5265L23.6704 11.985L23.9722 11.5237L24.5403 10.5338L24.8657 9.88426L24.8748 9.86431L25.1237 9.26171C25.127 9.25396 25.1299 9.24605 25.1325 9.23803L25.4005 8.40187L25.4284 8.2801L25.5447 7.61434L25.5672 7.43439L25.5742 7.32384L25.5821 6.90701L25.58 6.82971L25.5589 6.45652L25.5323 6.16644L25.4001 5.33112C25.398 5.3199 25.3959 5.30868 25.3926 5.29787L25.2231 4.6799L25.1649 4.50826L25.0427 4.20364V4.20364ZM28.4929 22.1112C28.0856 22.1132 27.6956 22.276 27.4076 22.564C27.1196 22.8519 26.9569 23.242 26.9548 23.6492C26.9571 24.0565 27.1199 24.4463 27.4078 24.7343C27.6958 25.0222 28.0857 25.185 28.4929 25.1873C28.9002 25.1851 29.2902 25.0224 29.5782 24.7344C29.8662 24.4465 30.0291 24.0565 30.0314 23.6492C30.0292 23.2419 29.8664 22.8519 29.5783 22.5639C29.2903 22.2759 28.9002 22.1132 28.4929 22.1112V22.1112Z" fill="url(#paint0_radial)"/>
<path fill-rule="evenodd" clip-rule="evenodd" d="M12.0087 30.4677H3.19875C2.80727 30.4673 2.51096 30.1195 2.51096 29.728C2.51096 29.5148 2.58077 29.3382 2.74535 29.2027L10.4066 22.4619C10.5345 22.3573 10.6946 22.3001 10.8598 22.3001C11.025 22.3001 11.1852 22.3573 11.313 22.4619L15.9996 26.3152L17.6636 24.9471C17.7914 24.8425 17.9516 24.7853 18.1168 24.7853C18.282 24.7853 18.4421 24.8425 18.57 24.9471L23.7461 29.2027C23.9106 29.3382 24.0062 29.5406 24.0062 29.7538C24.0062 30.1452 23.6841 30.4673 23.2927 30.4677H21.573C21.4288 30.4677 21.3839 30.4441 21.3211 30.3697C21.2563 30.2803 21.2896 30.1964 21.3677 30.1182L21.8439 29.7891C21.9329 29.6997 21.9724 29.5942 21.846 29.4915L18.1174 26.4224L13.6952 30.1423C13.4399 30.3526 13.1195 30.4674 12.7888 30.4673H12.0091L12.0087 30.4677V30.4677ZM28.4929 22.1112C28.0856 22.1132 27.6956 22.276 27.4076 22.564C27.1196 22.852 26.9569 23.242 26.9548 23.6492C26.9571 24.0565 27.1199 24.4464 27.4078 24.7343C27.6958 25.0223 28.0857 25.185 28.4929 25.1873C28.9002 25.1851 29.2902 25.0224 29.5782 24.7344C29.8662 24.4465 30.0291 24.0565 30.0314 23.6492C30.0292 23.2419 29.8664 22.8519 29.5783 22.5639C29.2903 22.2759 28.9002 22.1132 28.4929 22.1112V22.1112ZM17.0593 17.322L16.5411 16.8075L16.2277 16.4825L15.4356 15.631L15.2386 15.4149L14.2782 14.2919L14.0064 13.9549L13.1653 12.8603L13.0718 12.7343L12.4256 11.7822L12.2481 11.4955L11.7851 10.7005L11.6434 10.4403L11.2428 9.59418L11.1672 9.39969L10.9369 8.75221L10.8484 8.44634L10.7803 8.16374L10.7229 7.85704L10.6776 7.51626L10.6593 7.29849L10.6514 6.92696L10.6531 6.84883L10.6639 6.62649L10.7441 5.8161L10.769 5.67397L10.9515 4.86483L10.9939 4.72935L11.1293 4.33455L11.1726 4.2319L11.3883 3.75813L11.5379 3.47636L11.7461 3.13268L11.9539 2.82681L12.1014 2.63231L12.2722 2.42701L12.4596 2.22088L12.62 2.05922L13.0111 1.71512L13.297 1.48114C13.304 1.47538 13.3112 1.46997 13.3186 1.46494L13.6569 1.23595L13.9258 1.06473L14.4361 0.795844C14.444 0.791273 14.4528 0.787532 14.4611 0.783792L15.185 0.483325L15.2519 0.457974L15.8953 0.269714L16.1671 0.208623L16.5344 0.135065L16.778 0.0980779L17.1516 0.0515325L17.4067 0.0290909L17.9125 0.00207792L18.1103 0L18.486 0.00748052L18.5833 0.0132987L19.1273 0.0581818L19.8466 0.159584L19.9293 0.177455L20.6404 0.354078L20.849 0.416416L21.0809 0.496208L21.3635 0.603429L21.5867 0.697766L21.9146 0.852779L22.1216 0.958753L22.4931 1.17694L22.6315 1.26213L23.1381 1.632L23.2835 1.75792L23.6368 2.08L23.6542 2.09745L23.9539 2.4187L24.0569 2.53506L24.4085 3.00177L24.48 3.11356L24.7589 3.58483L24.8428 3.74649L25.0003 4.09766L25.1649 4.50826L25.2231 4.6799L25.3926 5.29787C25.3959 5.30868 25.398 5.3199 25.4001 5.33112L25.5323 6.16644L25.5589 6.45652L25.58 6.82971L25.5821 6.90701L25.5742 7.32384L25.5672 7.43439L25.5447 7.61434L25.4284 8.2801L25.4005 8.40187L25.1325 9.23803C25.1299 9.24605 25.127 9.25396 25.1237 9.26171L24.8748 9.86431L24.8657 9.88426L24.5403 10.5338L23.9721 11.5237L23.6704 11.985L23.308 12.5265L23.0529 12.8765L22.5471 13.5526L22.203 13.9857L21.6939 14.6053L21.3373 15.0221L20.7892 15.6393L20.4364 16.0266L19.4161 17.0917L19.1788 17.3261L19.3189 17.4454C19.5171 17.6278 19.7033 17.8228 19.8761 18.0293C19.9281 18.0925 19.9784 18.1569 20.027 18.2225C20.0794 18.2928 20.1288 18.3651 20.1762 18.4391C20.2248 18.5155 20.2705 18.5941 20.3125 18.6743C20.3578 18.7599 20.3981 18.848 20.4339 18.9378C20.5153 19.1439 20.5706 19.3621 20.591 19.5823L20.6001 19.7498C20.6055 20.0704 20.5469 20.3889 20.4276 20.6865C20.2751 21.0685 20.0237 21.403 19.6991 21.6557C19.5858 21.7442 19.4648 21.8224 19.3376 21.8892C19.0432 22.0427 18.7221 22.1381 18.3917 22.1702H18.3896C18.1907 22.1902 17.9901 22.1884 17.7916 22.1648C17.6046 22.1428 17.4206 22.1008 17.2426 22.0397C17.0728 21.981 16.9099 21.9041 16.7568 21.8103C16.5771 21.7002 16.4131 21.5666 16.2689 21.413C16.0706 21.2021 15.9136 20.956 15.8059 20.6874C15.6999 20.4224 15.6418 20.1407 15.6343 19.8554L15.6372 19.653C15.6526 19.4186 15.7033 19.1878 15.7876 18.9685C15.8205 18.8825 15.8579 18.7985 15.899 18.7167C15.98 18.5588 16.0727 18.4075 16.1766 18.2633C16.2444 18.1689 16.3163 18.0775 16.3911 17.989C16.5477 17.8057 16.7144 17.6316 16.8906 17.4674L16.9554 17.4088L17.0593 17.322V17.322Z" fill="black"/>
<path fill-rule="evenodd" clip-rule="evenodd" d="M12.0091 30.4673H12.7888C13.1196 30.4673 13.44 30.3526 13.6952 30.1423L18.1174 26.4224L21.846 29.4915C21.9724 29.5942 21.9329 29.6997 21.8439 29.7891L21.3677 30.1182C21.2896 30.1964 21.2563 30.2803 21.3211 30.3697C21.3839 30.4445 21.4292 30.4677 21.5747 30.4677H12.0087L12.0091 30.4673V30.4673ZM18.139 18.5662L18.1802 18.5783C18.193 18.5845 18.2043 18.5941 18.2163 18.602L18.2504 18.6323C18.3348 18.71 18.4166 18.7911 18.4952 18.8746C18.5509 18.934 18.6049 18.9951 18.6568 19.0579C18.7229 19.1377 18.7844 19.2212 18.8409 19.3081C18.865 19.3463 18.8879 19.3854 18.9091 19.4257C18.9274 19.4606 18.944 19.4967 18.9585 19.5337C18.9839 19.5973 19.003 19.6646 19.0092 19.7332L19.008 19.862C18.9995 19.9782 18.9635 20.0907 18.9029 20.1902C18.8424 20.2897 18.759 20.3734 18.6597 20.4343C18.5309 20.512 18.3863 20.5598 18.2363 20.5735L18.0771 20.5785L17.9429 20.5664C17.8802 20.5573 17.8186 20.5423 17.7588 20.5216C17.6976 20.5008 17.6389 20.4733 17.5838 20.4397L17.4791 20.3632C17.3556 20.2576 17.2716 20.1133 17.2405 19.9539C17.2351 19.9272 17.231 19.9003 17.2281 19.8732L17.2243 19.7502C17.2264 19.717 17.2314 19.6842 17.2389 19.6517C17.2571 19.5798 17.2833 19.5104 17.3166 19.4444C17.3369 19.4041 17.3589 19.3647 17.3826 19.3263C17.408 19.2852 17.435 19.2453 17.4633 19.2062C17.5539 19.0836 17.6524 18.9669 17.7575 18.8563C17.8252 18.7848 17.8951 18.7154 17.9674 18.6485L18.0189 18.602C18.0547 18.5783 18.0551 18.5783 18.0962 18.5662H18.139ZM17.8751 1.45745L17.8917 1.45579V15.8026L17.856 15.7365C17.3838 14.8628 16.9442 13.9719 16.5382 13.0656C16.2087 12.3321 15.9103 11.585 15.6438 10.8264C15.4307 10.2222 15.2507 9.60674 15.1048 8.98286C14.9914 8.48706 14.9045 7.98421 14.8688 7.47636C14.8551 7.25958 14.8509 7.04229 14.8563 6.82514C14.8596 6.63605 14.8675 6.44738 14.8792 6.2587C14.8983 5.96156 14.9282 5.66566 14.9718 5.37143C15.0063 5.13995 15.0491 4.90971 15.1019 4.68156C15.1435 4.50036 15.1921 4.32083 15.2474 4.14379C15.3276 3.88821 15.4236 3.63844 15.535 3.39491C15.5761 3.3068 15.6197 3.21953 15.6659 3.13392C15.9431 2.62109 16.3188 2.14857 16.8108 1.83231C17.1305 1.62407 17.4955 1.49552 17.8751 1.45745V1.45745ZM19.7357 1.49361C20.0636 1.56177 20.3861 1.65278 20.7007 1.76873C21.1478 1.93371 21.578 2.14899 21.9736 2.41745C22.5127 2.78108 22.9772 3.24447 23.3421 3.78265C23.5566 4.1014 23.734 4.44509 23.8724 4.80416C24.0731 5.33569 24.1974 5.89257 24.2415 6.45901C24.2539 6.60738 24.2614 6.75574 24.2643 6.90452C24.2676 7.04249 24.2668 7.1813 24.256 7.31927C24.2285 7.62822 24.1704 7.93366 24.0823 8.23106C24.0116 8.4746 23.9281 8.71397 23.8321 8.94878C23.713 9.2406 23.5805 9.52682 23.4352 9.80654C23.1136 10.4278 22.7433 11.0221 22.3468 11.5969C21.8556 12.3034 21.332 12.9868 20.7776 13.6449C20.1754 14.3629 19.5474 15.0589 18.895 15.7315C19.3378 14.9012 19.7512 14.0556 20.1342 13.1961C20.347 12.7172 20.5478 12.2332 20.7364 11.7444C20.9442 11.2075 21.1316 10.6631 21.2979 10.112C21.4213 9.69891 21.5306 9.28166 21.6204 8.85984C21.6972 8.49828 21.7579 8.13257 21.7953 7.76478C21.8269 7.45808 21.8385 7.14971 21.8306 6.84177C21.8279 6.65351 21.821 6.46535 21.8099 6.2774C21.7646 5.52062 21.6499 4.76634 21.4292 4.04073C21.3456 3.76554 21.2438 3.4962 21.1246 3.23449C20.8424 2.61943 20.448 2.04384 19.9148 1.62452C19.8566 1.57885 19.7969 1.53519 19.7357 1.49361V1.49361Z" fill="white"/>
<path fill-rule="evenodd" clip-rule="evenodd" d="M80.5926 26.9178L75.8799 16.9002C75.4863 16.0652 75.2519 15.7606 74.8584 15.4065L74.4752 15.0633C74.1698 14.769 73.969 14.4968 73.969 14.1735C73.969 13.7101 74.3385 13.3203 75.0113 13.3203H79.1028C79.7452 13.3203 80.145 13.6519 80.145 14.1473C80.145 14.4237 80.017 14.6306 79.8554 14.8339C79.6634 15.0757 79.4136 15.3114 79.4136 15.7403C79.4136 16.0091 79.4926 16.2776 79.6447 16.6201L82.4569 23.1597L84.9795 16.7842C85.135 16.3607 85.2409 15.9871 85.2409 15.6879C85.2409 15.2229 84.9866 15.0329 84.79 14.8251C84.6192 14.6444 84.4825 14.4532 84.4825 14.1473C84.4825 13.647 84.8918 13.3203 85.4433 13.3203H87.9634C88.6699 13.3203 89.0057 13.6831 89.0057 14.1473C89.0057 14.4441 88.8332 14.7188 88.4945 15.0159L88.138 15.3068C87.6418 15.7095 87.4119 16.2917 87.1514 16.8939L83.3309 26.0343C82.8792 27.1028 82.2072 28.586 81.1807 29.8028C80.138 31.0388 78.7316 32 76.827 32C75.232 32 74.267 31.2445 74.267 30.1544C74.267 29.1566 75.0105 28.3611 75.9867 28.3611C76.522 28.3611 76.8 28.6122 77.0826 28.8702C77.3157 29.083 77.5526 29.3012 78.0189 29.3012C78.4524 29.3012 78.8559 29.1196 79.2212 28.8258C79.7793 28.3778 80.2473 27.6713 80.5926 26.9178V26.9178ZM108.285 26.8817C110.407 26.8817 112.145 26.1602 113.501 24.7202C114.855 23.2819 115.532 21.5505 115.532 19.5266C115.532 17.5514 114.889 15.9281 113.605 14.6556C112.323 13.3843 110.658 12.7456 108.61 12.7456C106.454 12.7456 104.689 13.4408 103.316 14.8264C101.942 16.2128 101.255 17.8926 101.255 19.8662C101.255 21.8215 101.91 23.4789 103.22 24.8387C104.53 26.1993 106.218 26.8817 108.285 26.8817ZM90.3476 26.725C91.5744 26.725 92.4468 25.905 92.4468 24.7231C92.4468 23.5686 91.5458 22.747 90.3476 22.747C89.0926 22.747 88.1945 23.5699 88.1945 24.7231C88.1945 25.9038 89.0934 26.725 90.3476 26.725ZM94.7154 24.8515L95.0138 24.5382C95.3691 24.1953 95.4834 23.8491 95.4834 22.895V17.2546C95.4834 16.4297 95.3704 16.0615 95.018 15.7465L94.6668 15.4336C94.3227 15.1323 94.2097 14.9444 94.2097 14.6435C94.2097 14.2151 94.5442 13.8639 95.082 13.7421L97.4662 13.1678C97.6948 13.1125 97.9516 13.0589 98.1515 13.0589C98.4258 13.0589 98.6502 13.1487 98.8077 13.3041C98.9652 13.4599 99.0583 13.6839 99.0583 13.9645V22.895C99.0583 23.7959 99.168 24.2144 99.547 24.5311C99.553 24.5363 99.5587 24.5419 99.5641 24.5477L99.8309 24.8561C100.165 25.1798 100.305 25.3943 100.305 25.6894C100.305 26.2155 99.9044 26.5164 99.2623 26.5164H95.2249C94.6128 26.5164 94.2097 26.2171 94.2097 25.6894C94.2097 25.393 94.3485 25.1765 94.7154 24.8515V24.8515ZM67.7278 24.8515L68.0262 24.5382C68.3815 24.1953 68.4958 23.8491 68.4958 22.895V11.1181C68.4958 10.3194 68.4106 9.92748 68.0341 9.61288L67.6742 9.26629C67.3629 8.96623 67.2495 8.78047 67.2495 8.48083C67.2495 8.05153 67.5857 7.70203 68.0939 7.57943L70.4515 7.00509C70.6801 6.94982 70.9369 6.89621 71.1368 6.89621C71.409 6.89621 71.6397 6.97808 71.8038 7.13226C71.9688 7.28727 72.0706 7.51792 72.0706 7.82795V22.895C72.0706 23.798 72.1837 24.1928 72.5635 24.5344L72.8677 24.854C73.2048 25.1794 73.317 25.3926 73.317 25.6894C73.317 25.9079 73.2501 26.0842 73.1304 26.2184C72.9617 26.4079 72.6786 26.5164 72.3017 26.5164H68.2647C67.8878 26.5164 67.6048 26.4079 67.4361 26.2184C67.3164 26.0842 67.2495 25.9079 67.2495 25.6894C67.2495 25.3922 67.3604 25.1774 67.7278 24.8515V24.8515ZM56.7343 18.7869V22.843C56.7343 23.4543 56.8561 24.0187 57.3635 24.4833L57.6914 24.7992C58.0584 25.1528 58.1702 25.3648 58.1702 25.6894C58.1702 26.1843 57.7704 26.5164 57.1279 26.5164H52.576C51.9339 26.5164 51.5337 26.1843 51.5337 25.6894C51.5337 25.3045 51.6476 25.1221 52.0145 24.7971L52.3416 24.4825C52.7219 24.1401 52.97 23.6738 52.97 22.843V12.0058C52.97 11.3459 52.8229 10.806 52.3408 10.3659L52.0125 10.0497C51.675 9.72468 51.5337 9.51107 51.5337 9.18566C51.5337 8.66078 51.9348 8.33247 52.576 8.33247H64.7692C65.2351 8.33247 65.6449 8.43553 65.9063 8.69029C66.0883 8.86732 66.2047 9.11709 66.2176 9.4641L66.4075 12.2589C66.4266 12.6084 66.3227 12.8997 66.1195 13.0793C65.9798 13.2031 65.7916 13.2771 65.5551 13.2771C65.2563 13.2771 65.0277 13.1653 64.8233 12.9721C64.6396 12.7983 64.4758 12.5544 64.2917 12.2676C63.8462 11.5607 63.6389 11.3068 63.1643 10.9764C62.5035 10.4923 61.4969 10.326 59.594 10.326C58.4956 10.326 57.8024 10.3734 57.366 10.4852C57.0838 10.5575 56.9205 10.6514 56.8337 10.7894C56.7443 10.9307 56.7343 11.109 56.7343 11.3272V16.8191H59.594C60.278 16.8191 60.7597 16.6969 61.317 15.9393L61.3203 15.9356C61.5439 15.6526 61.7051 15.4448 61.8589 15.3068C62.0384 15.1456 62.2105 15.0699 62.4391 15.0699C62.8679 15.0699 63.2644 15.4194 63.2644 15.8969V19.6833C63.2644 20.1903 62.8667 20.5365 62.4391 20.5365C62.2267 20.5365 62.0534 20.4613 61.8739 20.3038C61.7193 20.1683 61.5572 19.9663 61.3465 19.6958C60.7364 18.912 60.3054 18.7869 59.594 18.7869H56.7343V18.7869ZM105.046 18.6909C105.046 17.3324 105.344 16.3562 105.962 15.7689C106.572 15.1892 107.228 14.8958 107.933 14.8958C108.903 14.8958 109.776 15.4344 110.565 16.4945C111.37 17.5776 111.768 19.0421 111.768 20.8844C111.768 22.2442 111.469 23.2295 110.851 23.8338C110.241 24.4297 109.585 24.7314 108.881 24.7314C107.911 24.7314 107.038 24.1887 106.25 23.1206C105.445 22.0285 105.046 20.5511 105.046 18.6909V18.6909ZM97.0676 11.3446C98.2969 11.3446 99.1663 10.6577 99.1663 9.47283C99.1663 8.31584 98.2974 7.62764 97.0676 7.62764C95.8088 7.62764 94.9415 8.31668 94.9415 9.47283C94.9415 10.629 95.8097 11.3446 97.0676 11.3446Z" fill="white"/>
<defs>
<radialGradient id="paint0_radial" cx="0" cy="0" r="1" gradientUnits="userSpaceOnUse" gradientTransform="translate(18.1166 17.3357) scale(24.7175)">
<stop stop-color="#BA7BF0"/>
<stop offset="0.45" stop-color="#996BEC"/>
<stop offset="1" stop-color="#5046E4"/>
</radialGradient>
</defs>
</svg>
