<svg width="102" height="32" viewBox="0 0 102 32" fill="none" xmlns="http://www.w3.org/2000/svg">
<path fill-rule="evenodd" clip-rule="evenodd" d="M40.8084 7.87627L44.2152 17.3699L47.2687 7.87627H53.4092L46.4661 24.7006C45.6514 26.6641 44.864 28.1621 44.1029 29.1964C43.3438 30.2298 42.5007 30.9555 41.5807 31.3745C40.6596 31.7905 39.5241 32 38.1729 32C37.4664 32 36.7741 31.9322 36.0991 31.7956C35.424 31.6599 34.5161 31.3786 34.1092 31.1488L35.7205 26.6601C36.3632 26.8625 36.5869 26.8929 37.4654 26.8929C38.2356 26.8929 38.8469 26.6996 39.2973 26.3129C39.7477 25.9263 40.186 25.233 40.6141 24.23L41.1293 23.0711L34.7034 7.87627H40.8084ZM26.4921 7.18601C28.9363 7.18601 30.8786 7.91473 32.3219 9.37217C33.7651 10.8276 34.4868 12.8043 34.4868 15.2981C34.4943 15.9528 34.4309 16.6064 34.2975 17.2474H23.5539C23.8474 18.1907 24.2219 18.8233 25.0316 19.2737C25.8433 19.7251 26.8463 20.0145 28.2572 20.0145C29.163 20.0145 30.079 19.9194 31.0061 19.7312C31.9332 19.5439 32.4241 19.4376 33.1396 19.1016L34.503 22.9811C33.6386 23.3798 32.1093 23.892 30.9828 24.1015C29.8338 24.3139 28.6676 24.4196 27.4991 24.4172C25.5194 24.4172 24.0802 24.0762 22.6066 23.395C21.1319 22.7149 19.9882 21.7281 19.1775 20.4396C18.3668 19.1512 17.961 17.6047 17.961 15.8011C17.961 14.1666 18.3081 12.7 19.0034 11.3984C19.6878 10.1101 20.723 9.04197 21.9892 8.31755C23.2847 7.56251 24.7857 7.18601 26.4931 7.18601H26.4921ZM62.5355 7.18601C63.5294 7.18601 64.5425 7.30038 65.5779 7.53316C66.5333 7.74874 67.3278 8.01898 67.9776 8.34083L66.423 12.784C65.4716 12.4864 64.2672 12.2537 63.2652 12.2537C61.997 12.2537 60.9981 12.5715 60.2693 13.204C59.5406 13.8376 59.1763 14.704 59.1763 15.8011C59.1763 16.9205 59.5467 17.793 60.2866 18.4144C61.0264 19.0379 62.0507 19.3486 63.3603 19.3486C64.2409 19.3486 65.3259 19.1573 66.2985 18.88L67.8167 23.2746C67.1709 23.5934 66.4442 23.8545 65.6234 24.0539C64.6204 24.2958 63.6002 24.4172 62.5658 24.4172C60.7916 24.4172 59.2228 24.0741 57.8595 23.3879C56.5286 22.7313 55.4169 21.7026 54.6592 20.4265C53.889 19.1381 53.5034 17.6179 53.5034 15.8649C53.5034 14.2172 53.8728 12.7405 54.6126 11.4308C55.3515 10.1221 56.4081 9.08574 57.7816 8.32565C59.156 7.56555 60.739 7.18601 62.5355 7.18601ZM76.4814 7.18601C77.4652 7.18601 78.375 7.39551 79.2111 7.81453C80.046 8.23456 80.709 8.82057 81.2029 9.57561L81.2667 7.87526H86.6946V23.728H81.2667L81.2029 22.058C80.7079 22.8144 80.0128 23.4188 79.1949 23.8039C78.3508 24.2118 77.3933 24.4172 76.3215 24.4172C74.8863 24.4172 73.6029 24.066 72.4673 23.3636C71.3328 22.6612 70.433 21.6602 69.769 20.3607C69.1051 19.0611 68.7731 17.5622 68.7731 15.8639C68.7731 14.2718 69.094 12.8194 69.7367 11.5098C70.3794 10.2001 71.2892 9.15153 72.4663 8.36512C73.6434 7.57972 74.9814 7.18601 76.4814 7.18601ZM5.6395 0V9.13837C6.09955 8.42053 6.75082 7.84533 7.52 7.4775C8.3135 7.08783 9.21023 6.89148 10.2143 6.89148C12.0735 6.89148 13.4773 7.4775 14.4277 8.64851C15.3781 9.81953 15.8527 11.533 15.8527 13.7911V23.728H10.2132V14.8669C10.2132 12.9267 9.49261 11.9561 8.05136 11.9561C7.27811 11.9561 6.684 12.2253 6.266 12.7638C5.84799 13.3022 5.6395 14.0775 5.6395 15.0896V23.729H0V0H5.6395ZM98.9291 7.18601C99.6274 7.18601 100.697 7.45219 101.211 7.68194L99.9159 12.7273C99.3643 12.5391 99.0009 12.4692 98.2813 12.4692C97.2125 12.4692 96.4059 12.8306 95.8613 13.5542C95.3158 14.2779 95.0446 15.3528 95.0446 16.7788V23.729H89.4941V7.87627H94.8897L94.9504 9.92175C95.3421 9.04121 95.8765 8.36512 96.5546 7.89347C97.2328 7.42183 98.0252 7.18601 98.9291 7.18601ZM77.8963 12.2172C76.9105 12.2172 76.1018 12.5532 75.4713 13.2243C74.8387 13.8953 74.524 14.7536 74.524 15.8021C74.524 16.8507 74.8387 17.71 75.4713 18.381C76.1018 19.052 76.9105 19.387 77.8963 19.387C78.8811 19.387 79.6837 19.052 80.3052 18.381C80.9256 17.71 81.2363 16.8507 81.2363 15.8021C81.2363 14.7546 80.9256 13.8953 80.3052 13.2243C79.6837 12.5532 78.8811 12.2172 77.8963 12.2172ZM26.398 11.1494C24.7978 11.1494 23.8171 12.0512 23.4598 13.8538H29.1782C29.0942 13.0148 28.8037 12.3539 28.3098 11.8721C27.8139 11.3903 27.1773 11.1494 26.398 11.1494Z" fill="white"/>
<path fill-rule="evenodd" clip-rule="evenodd" d="M54.3242 31.6043H100.505V27.4688H54.3242V31.6043Z" fill="#C0E6FF"/>
</svg>
