<svg width="76" height="32" viewBox="0 0 76 32" fill="none" xmlns="http://www.w3.org/2000/svg">
<g clip-path="url(#clip0)">
<path d="M5.97078 0.446213H0V6.417H5.97078V0.446213Z" fill="#00AAE8"/>
<path d="M5.82205 31.5538V10.0505H0.169991V31.5538H5.82205ZM43.3891 31.7663V26.4967C42.5604 26.4967 41.8592 26.4542 41.3493 26.3692C40.7543 26.2842 40.3081 26.0717 40.0106 25.7742C39.7132 25.4768 39.5219 25.0518 39.4157 24.4993C39.3307 23.9681 39.2882 23.2669 39.2882 22.417V14.8951H43.3891V10.0505H39.2882V1.65737H33.6149V22.4595C33.6149 24.2231 33.7636 25.7105 34.0611 26.9004C34.3586 28.0691 34.8685 29.0252 35.5697 29.7477C36.2709 30.4701 37.2059 30.9801 38.332 31.2988C39.4794 31.6175 40.9243 31.7663 42.6454 31.7663H43.3891ZM75.8566 31.5538V0H70.1833V31.5538H75.8566ZM28.1541 12.1541C26.5817 10.4542 24.3719 9.60425 21.5671 9.60425C20.2072 9.60425 18.9748 9.88048 17.8486 10.4329C16.7437 10.9854 15.7875 11.7503 15.0438 12.7278L14.7251 13.1315V12.7703V10.0505H9.13679V31.5538H14.7676V20.1009V20.8871C14.7676 20.7596 14.7676 20.6321 14.7676 20.5046C14.8313 18.4861 15.3201 16.9987 16.255 16.0425C17.2537 15.0226 18.4648 14.5126 19.846 14.5126C21.4821 14.5126 22.7357 15.0226 23.5644 16C24.3719 16.9774 24.7968 18.3586 24.7968 20.1222V20.1647V31.5325H30.5126V19.336C30.5339 16.2762 29.7264 13.8539 28.1541 12.1541ZM67.251 20.7596C67.251 19.2085 66.9748 17.7636 66.4436 16.4037C65.8911 15.0651 65.1262 13.8752 64.17 12.8552C63.1926 11.8353 62.0239 11.0491 60.664 10.4754C59.3041 9.90173 57.7955 9.6255 56.1594 9.6255C54.6082 9.6255 53.1421 9.92298 51.7822 10.4967C50.4223 11.0916 49.2324 11.8778 48.2337 12.8765C47.2351 13.8752 46.4276 15.0651 45.8539 16.425C45.259 17.7849 44.9827 19.251 44.9827 20.8021C44.9827 22.3533 45.259 23.8194 45.8114 25.1793C46.3639 26.5392 47.1501 27.7291 48.1275 28.7278C49.1049 29.7264 50.3161 30.5339 51.7185 31.1076C53.1209 31.7025 54.672 32 56.3294 32C61.1315 32 64.1062 29.8114 65.8911 27.7716L61.8114 24.6693C60.9615 25.6892 58.9217 27.0704 56.3719 27.0704C54.7782 27.0704 53.4608 26.7092 52.4622 25.9655C51.4635 25.243 50.7835 24.2231 50.4223 22.9695L50.3586 22.7782H67.251V20.7596ZM50.4011 18.7835C50.4011 17.2112 52.2072 14.4701 56.0956 14.4489C59.9841 14.4489 61.8114 17.1899 61.8114 18.7623L50.4011 18.7835Z" fill="white"/>
</g>
<defs>
<clipPath id="clip0">
<rect width="75.8566" height="32" fill="white"/>
</clipPath>
</defs>
</svg>
