<svg width="184" height="40" viewBox="0 0 184 40" fill="none" xmlns="http://www.w3.org/2000/svg">
<path fill-rule="evenodd" clip-rule="evenodd" d="M14.8829 8.60997C14.4635 8.19061 13.7836 8.19061 13.3642 8.60997L8.80822 13.166C8.38885 13.5854 8.38885 14.2653 8.80822 14.6847L25.5136 31.39C25.933 31.8094 26.6129 31.8094 27.0323 31.39L31.5883 26.834C32.0076 26.4146 32.0076 25.7347 31.5883 25.3153L14.8829 8.60997ZM5.77088 10.1286C3.67403 12.2255 3.67403 15.6251 5.77088 17.722L22.4763 34.4274C24.5731 36.5242 27.9728 36.5242 30.0696 34.4274L34.6256 29.8714C36.7225 27.7745 36.7225 24.3749 34.6256 22.278L17.9202 5.57263C15.8234 3.47579 12.4237 3.47579 10.3269 5.57263L5.77088 10.1286Z" fill="url(#paint0_linear)"/>
<path d="M31.5883 14.6847C32.0076 14.2653 32.0076 13.5854 31.5883 13.166L27.0323 8.60997C26.6129 8.19061 25.933 8.19061 25.5136 8.60997L23.2435 10.8801L20.2061 7.84275L22.4763 5.57263C24.5731 3.47579 27.9728 3.47579 30.0696 5.57263L34.6256 10.1286C36.7225 12.2255 36.7225 15.6251 34.6256 17.722L23.2277 29.1199L20.1903 26.0826L31.5883 14.6847Z" fill="url(#paint1_linear)"/>
<path d="M17.153 29.1199L14.8829 31.39C14.4635 31.8094 13.7836 31.8094 13.3642 31.39L8.80822 26.834C8.38885 26.4146 8.38885 25.7347 8.80822 25.3153L20.2061 13.9174L17.1688 10.8801L5.77088 22.278C3.67403 24.3749 3.67403 27.7745 5.77088 29.8714L10.3269 34.4274C12.4237 36.5242 15.8234 36.5242 17.9202 34.4274L20.1903 32.1573L17.153 29.1199Z" fill="url(#paint2_linear)"/>
<path d="M20.1982 32.1757L16.3238 29.9754L17.1609 29.1383L20.1982 32.1757Z" fill="url(#paint3_radial)" fill-opacity="0.4" style="mix-blend-mode:multiply"/>
<path d="M20.1982 13.9516L16.3459 11.7293L17.1609 10.9143L20.1982 13.9516Z" fill="url(#paint4_radial)" fill-opacity="0.4" style="mix-blend-mode:multiply"/>
<path d="M23.2356 10.9143L24.0989 10.051L20.1982 7.87695L23.2356 10.9143Z" fill="url(#paint5_radial)" fill-opacity="0.4" style="mix-blend-mode:multiply"/>
<path d="M24.0827 28.2912L20.1982 26.101L23.2356 29.1383L24.0827 28.2912Z" fill="url(#paint6_radial)" fill-opacity="0.4" style="mix-blend-mode:multiply"/>
<path d="M8.04883 20.0001L10.2491 16.1257L11.0862 16.9627L8.04883 20.0001Z" fill="url(#paint7_radial)" fill-opacity="0.4" style="mix-blend-mode:multiply"/>
<path d="M26.2729 20.0001L28.4952 16.1477L29.3102 16.9627L26.2729 20.0001Z" fill="url(#paint8_radial)" fill-opacity="0.4" style="mix-blend-mode:multiply"/>
<path d="M29.3102 23.0374L30.1735 23.9007L32.3476 20.0001L29.3102 23.0374Z" fill="url(#paint9_radial)" fill-opacity="0.4" style="mix-blend-mode:multiply"/>
<path d="M11.9334 23.8846L14.1235 20L11.0862 23.0374L11.9334 23.8846Z" fill="url(#paint10_radial)" fill-opacity="0.4" style="mix-blend-mode:multiply"/>
<g filter="url(#filter0_d)">
<path d="M56.6142 14.6719H61.5422V31.6319H56.6142V14.6719ZM59.0782 13.0719C58.1609 13.0719 57.4462 12.8372 56.9342 12.3679C56.4436 11.8772 56.1982 11.2586 56.1982 10.5119C56.1982 9.76524 56.4436 9.15724 56.9342 8.6879C57.4462 8.19724 58.1609 7.9519 59.0782 7.9519C59.9956 7.9519 60.6996 8.19724 61.1902 8.6879C61.7022 9.15724 61.9582 9.76524 61.9582 10.5119C61.9582 11.2586 61.7022 11.8772 61.1902 12.3679C60.6996 12.8372 59.9956 13.0719 59.0782 13.0719Z" fill="white"/>
<path d="M72.2755 31.8239C71.2088 31.8239 70.2915 31.7279 69.5235 31.5359C68.7555 31.3226 68.1262 30.9812 67.6355 30.5119C67.1448 30.0426 66.7822 29.4346 66.5475 28.6879C66.3128 27.9199 66.1955 26.9812 66.1955 25.8719V18.7039H64.1155V14.6719H66.1955V10.8319H71.1235V14.6719H74.9955V18.7039H71.1235V25.0719C71.1235 26.0319 71.2728 26.7146 71.5715 27.1199C71.8915 27.5252 72.4995 27.7279 73.3955 27.7279C74.0355 27.7279 74.6755 27.6959 75.3155 27.6319V31.6639C74.9102 31.7066 74.4835 31.7386 74.0355 31.7599C73.5875 31.8026 73.0008 31.8239 72.2755 31.8239Z" fill="white"/>
<path d="M86.048 32.0479C84.8107 32.0479 83.648 31.8772 82.56 31.5359C81.4933 31.1732 80.5653 30.6292 79.776 29.9039C78.9867 29.1786 78.368 28.2719 77.92 27.1839C77.472 26.0746 77.248 24.7839 77.248 23.3119V22.6719C77.248 21.2639 77.4613 20.0372 77.888 18.9919C78.336 17.9466 78.9333 17.0719 79.68 16.3679C80.448 15.6639 81.344 15.1412 82.368 14.7999C83.4133 14.4372 84.5333 14.2559 85.728 14.2559C88.5227 14.2559 90.6347 14.9812 92.064 16.4319C93.4933 17.8612 94.208 19.9412 94.208 22.6719V24.4319H82.304C82.3253 25.0932 82.4427 25.6586 82.656 26.1279C82.8693 26.5759 83.1467 26.9492 83.488 27.2479C83.8293 27.5466 84.2133 27.7706 84.64 27.9199C85.088 28.0479 85.5573 28.1119 86.048 28.1119C86.9867 28.1119 87.7227 27.9732 88.256 27.6959C88.8107 27.3972 89.1733 27.0026 89.344 26.5119H93.888C93.5467 28.3679 92.704 29.7546 91.36 30.6719C90.016 31.5892 88.2453 32.0479 86.048 32.0479ZM85.888 18.1599C85.44 18.1599 85.0027 18.2132 84.576 18.3199C84.1707 18.4266 83.7973 18.6079 83.456 18.8639C83.136 19.0986 82.8693 19.4079 82.656 19.7919C82.464 20.1759 82.3573 20.6452 82.336 21.1999H89.376C89.376 20.6026 89.28 20.1119 89.088 19.7279C88.896 19.3439 88.64 19.0346 88.32 18.7999C88.0213 18.5652 87.6587 18.4052 87.232 18.3199C86.8053 18.2132 86.3573 18.1599 85.888 18.1599Z" fill="white"/>
<path d="M96.763 14.6719H101.307V16.9759C101.435 16.6986 101.627 16.3999 101.883 16.0799C102.16 15.7599 102.48 15.4612 102.843 15.1839C103.206 14.9066 103.611 14.6826 104.059 14.5119C104.528 14.3412 105.03 14.2559 105.563 14.2559C105.926 14.2559 106.214 14.2772 106.427 14.3199C106.64 14.3626 106.832 14.4052 107.003 14.4479V18.7039C106.896 18.6399 106.651 18.5652 106.267 18.4799C105.883 18.3946 105.435 18.3519 104.923 18.3519C103.792 18.3519 102.971 18.6826 102.459 19.3439C101.947 20.0052 101.691 20.8052 101.691 21.7439V31.6319H96.763V14.6719Z" fill="white"/>
<path d="M114.043 32.0479C113.126 32.0479 112.304 31.9092 111.579 31.6319C110.875 31.3546 110.278 30.9812 109.787 30.5119C109.296 30.0212 108.923 29.4559 108.667 28.8159C108.411 28.1546 108.283 27.4399 108.283 26.6719C108.283 24.9866 108.795 23.6959 109.819 22.7999C110.864 21.9039 112.432 21.4559 114.523 21.4559H119.355V20.7519C119.355 19.7279 119.11 19.0239 118.619 18.6399C118.128 18.2346 117.456 18.0319 116.603 18.0319C115.792 18.0319 115.195 18.1599 114.811 18.4159C114.427 18.6719 114.214 19.0772 114.171 19.6319H109.243C109.286 18.8639 109.478 18.1599 109.819 17.5199C110.16 16.8586 110.64 16.2932 111.259 15.8239C111.899 15.3332 112.678 14.9492 113.595 14.6719C114.512 14.3946 115.568 14.2559 116.763 14.2559C117.872 14.2559 118.886 14.3839 119.803 14.6399C120.742 14.8746 121.542 15.2692 122.203 15.8239C122.864 16.3572 123.376 17.0612 123.739 17.9359C124.102 18.7892 124.283 19.8346 124.283 21.0719V27.3119C124.283 28.2079 124.304 28.9972 124.347 29.6799C124.39 30.3412 124.454 30.9919 124.539 31.6319H119.867C119.824 31.2692 119.782 30.9492 119.739 30.6719C119.718 30.3946 119.707 30.0532 119.707 29.6479C119.195 30.3306 118.48 30.9066 117.563 31.3759C116.667 31.8239 115.494 32.0479 114.043 32.0479ZM115.643 28.5919C116.688 28.5919 117.563 28.2932 118.267 27.6959C118.992 27.0986 119.355 26.2772 119.355 25.2319V24.5279H115.483C114.758 24.5279 114.214 24.7199 113.851 25.1039C113.51 25.4879 113.339 25.9359 113.339 26.4479C113.339 27.0666 113.51 27.5786 113.851 27.9839C114.214 28.3892 114.811 28.5919 115.643 28.5919Z" fill="white"/>
<path d="M134.525 31.8239C133.459 31.8239 132.541 31.7279 131.773 31.5359C131.006 31.3226 130.376 30.9812 129.885 30.5119C129.395 30.0426 129.032 29.4346 128.797 28.6879C128.563 27.9199 128.445 26.9812 128.445 25.8719V18.7039H126.365V14.6719H128.445V10.8319H133.373V14.6719H137.245V18.7039H133.373V25.0719C133.373 26.0319 133.523 26.7146 133.821 27.1199C134.141 27.5252 134.749 27.7279 135.645 27.7279C136.285 27.7279 136.925 27.6959 137.565 27.6319V31.6639C137.16 31.7066 136.733 31.7386 136.285 31.7599C135.837 31.8026 135.251 31.8239 134.525 31.8239Z" fill="white"/>
<path d="M140.458 14.6719H145.386V31.6319H140.458V14.6719ZM142.922 13.0719C142.005 13.0719 141.29 12.8372 140.778 12.3679C140.287 11.8772 140.042 11.2586 140.042 10.5119C140.042 9.76524 140.287 9.15724 140.778 8.6879C141.29 8.19724 142.005 7.9519 142.922 7.9519C143.839 7.9519 144.543 8.19724 145.034 8.6879C145.546 9.15724 145.802 9.76524 145.802 10.5119C145.802 11.2586 145.546 11.8772 145.034 12.3679C144.543 12.8372 143.839 13.0719 142.922 13.0719Z" fill="white"/>
<path d="M147.639 14.6719H153.079L157.367 25.9679L161.271 14.6719H166.199L159.703 31.6319H154.775L147.639 14.6719Z" fill="white"/>
<path d="M175.642 32.0479C174.404 32.0479 173.242 31.8772 172.154 31.5359C171.087 31.1732 170.159 30.6292 169.37 29.9039C168.58 29.1786 167.962 28.2719 167.514 27.1839C167.066 26.0746 166.842 24.7839 166.842 23.3119V22.6719C166.842 21.2639 167.055 20.0372 167.482 18.9919C167.93 17.9466 168.527 17.0719 169.274 16.3679C170.042 15.6639 170.938 15.1412 171.962 14.7999C173.007 14.4372 174.127 14.2559 175.322 14.2559C178.116 14.2559 180.228 14.9812 181.658 16.4319C183.087 17.8612 183.802 19.9412 183.802 22.6719V24.4319H171.898C171.919 25.0932 172.036 25.6586 172.25 26.1279C172.463 26.5759 172.74 26.9492 173.082 27.2479C173.423 27.5466 173.807 27.7706 174.234 27.9199C174.682 28.0479 175.151 28.1119 175.642 28.1119C176.58 28.1119 177.316 27.9732 177.85 27.6959C178.404 27.3972 178.767 27.0026 178.938 26.5119H183.482C183.14 28.3679 182.298 29.7546 180.954 30.6719C179.61 31.5892 177.839 32.0479 175.642 32.0479ZM175.482 18.1599C175.034 18.1599 174.596 18.2132 174.17 18.3199C173.764 18.4266 173.391 18.6079 173.05 18.8639C172.73 19.0986 172.463 19.4079 172.25 19.7919C172.058 20.1759 171.951 20.6452 171.93 21.1999H178.97C178.97 20.6026 178.874 20.1119 178.682 19.7279C178.49 19.3439 178.234 19.0346 177.914 18.7999C177.615 18.5652 177.252 18.4052 176.826 18.3199C176.399 18.2132 175.951 18.1599 175.482 18.1599Z" fill="white"/>
</g>
<defs>
<filter id="filter0_d" x="56.1982" y="7.9519" width="127.604" height="25.096" filterUnits="userSpaceOnUse" color-interpolation-filters="sRGB">
<feFlood flood-opacity="0" result="BackgroundImageFix"/>
<feColorMatrix in="SourceAlpha" type="matrix" values="0 0 0 0 0 0 0 0 0 0 0 0 0 0 0 0 0 0 127 0"/>
<feOffset dy="1"/>
<feColorMatrix type="matrix" values="0 0 0 0 0.13 0 0 0 0 0.176667 0 0 0 0 0.27 0 0 0 0.25 0"/>
<feBlend mode="normal" in2="BackgroundImageFix" result="effect1_dropShadow"/>
<feBlend mode="normal" in="SourceGraphic" in2="effect1_dropShadow" result="shape"/>
</filter>
<linearGradient id="paint0_linear" x1="10.7697" y1="10.8571" x2="29.3411" y2="28.8572" gradientUnits="userSpaceOnUse">
<stop stop-color="#13ADC7"/>
<stop offset="0.479167" stop-color="#4685D9"/>
<stop offset="1" stop-color="#945DD6"/>
</linearGradient>
<linearGradient id="paint1_linear" x1="28.484" y1="11.1429" x2="10.1982" y2="28.8571" gradientUnits="userSpaceOnUse">
<stop stop-color="#F46737"/>
<stop offset="0.5" stop-color="#D94D81"/>
<stop offset="1" stop-color="#945DD6"/>
</linearGradient>
<linearGradient id="paint2_linear" x1="28.484" y1="11.1429" x2="10.1982" y2="28.8571" gradientUnits="userSpaceOnUse">
<stop stop-color="#F46737"/>
<stop offset="0.5" stop-color="#D94D81"/>
<stop offset="1" stop-color="#945DD6"/>
</linearGradient>
<radialGradient id="paint3_radial" cx="0" cy="0" r="1" gradientUnits="userSpaceOnUse" gradientTransform="translate(20.1982 20.0001) rotate(90) scale(14.2857)">
<stop offset="0.137737" stop-color="#0E131F" stop-opacity="0"/>
<stop offset="0.486973" stop-color="#0E131F" stop-opacity="0.48"/>
<stop offset="0.883198" stop-color="#0E131F" stop-opacity="0"/>
</radialGradient>
<radialGradient id="paint4_radial" cx="0" cy="0" r="1" gradientUnits="userSpaceOnUse" gradientTransform="translate(20.1982 20.0001) rotate(90) scale(14.2857)">
<stop offset="0.137737" stop-color="#0E131F" stop-opacity="0"/>
<stop offset="0.486973" stop-color="#0E131F" stop-opacity="0.48"/>
<stop offset="0.883198" stop-color="#0E131F" stop-opacity="0"/>
</radialGradient>
<radialGradient id="paint5_radial" cx="0" cy="0" r="1" gradientUnits="userSpaceOnUse" gradientTransform="translate(20.1982 20.0001) rotate(90) scale(14.2857)">
<stop offset="0.137737" stop-color="#0E131F" stop-opacity="0"/>
<stop offset="0.486973" stop-color="#0E131F" stop-opacity="0.48"/>
<stop offset="0.883198" stop-color="#0E131F" stop-opacity="0"/>
</radialGradient>
<radialGradient id="paint6_radial" cx="0" cy="0" r="1" gradientUnits="userSpaceOnUse" gradientTransform="translate(20.1982 20.0001) rotate(90) scale(14.2857)">
<stop offset="0.137737" stop-color="#0E131F" stop-opacity="0"/>
<stop offset="0.486973" stop-color="#0E131F" stop-opacity="0.48"/>
<stop offset="0.883198" stop-color="#0E131F" stop-opacity="0"/>
</radialGradient>
<radialGradient id="paint7_radial" cx="0" cy="0" r="1" gradientUnits="userSpaceOnUse" gradientTransform="translate(20.1982 20.0001) rotate(90) scale(14.2857)">
<stop offset="0.137737" stop-color="#0E131F" stop-opacity="0"/>
<stop offset="0.486973" stop-color="#0E131F" stop-opacity="0.48"/>
<stop offset="0.883198" stop-color="#0E131F" stop-opacity="0"/>
</radialGradient>
<radialGradient id="paint8_radial" cx="0" cy="0" r="1" gradientUnits="userSpaceOnUse" gradientTransform="translate(20.1982 20.0001) rotate(90) scale(14.2857)">
<stop offset="0.137737" stop-color="#0E131F" stop-opacity="0"/>
<stop offset="0.486973" stop-color="#0E131F" stop-opacity="0.48"/>
<stop offset="0.883198" stop-color="#0E131F" stop-opacity="0"/>
</radialGradient>
<radialGradient id="paint9_radial" cx="0" cy="0" r="1" gradientUnits="userSpaceOnUse" gradientTransform="translate(20.1982 20.0001) rotate(90) scale(14.2857)">
<stop offset="0.137737" stop-color="#0E131F" stop-opacity="0"/>
<stop offset="0.486973" stop-color="#0E131F" stop-opacity="0.48"/>
<stop offset="0.883198" stop-color="#0E131F" stop-opacity="0"/>
</radialGradient>
<radialGradient id="paint10_radial" cx="0" cy="0" r="1" gradientUnits="userSpaceOnUse" gradientTransform="translate(20.1982 20.0001) rotate(90) scale(14.2857)">
<stop offset="0.137737" stop-color="#0E131F" stop-opacity="0"/>
<stop offset="0.486973" stop-color="#0E131F" stop-opacity="0.48"/>
<stop offset="0.883198" stop-color="#0E131F" stop-opacity="0"/>
</radialGradient>
</defs>
</svg>
