<svg width="120" height="35" viewBox="0 0 120 35" fill="none" xmlns="http://www.w3.org/2000/svg">
<g clip-path="url(#clip0_201_5)">
<path d="M61.751 20.119C61.751 16.9962 59.1958 14.4411 56.0443 14.4411C54.3409 14.4411 52.8078 15.1792 51.7574 16.4C50.7069 15.1792 49.1738 14.4411 47.4704 14.4411C44.319 14.4411 41.764 16.9962 41.764 20.119V27.273C41.764 28.0681 42.3885 28.6926 43.1833 28.6926C43.9498 28.6926 44.5746 28.0681 44.5746 27.273V20.119C44.5746 18.5292 45.8806 17.2517 47.4704 17.2517C49.0603 17.2517 50.3378 18.5292 50.3378 20.119V27.273C50.3378 28.0681 50.9908 28.6926 51.7574 28.6926C52.5239 28.6926 53.1484 28.0681 53.1484 27.273V20.119C53.1484 18.5292 54.4544 17.2517 56.0443 17.2517C57.6342 17.2517 58.9402 18.5292 58.9402 20.119C58.9402 20.1758 58.9402 20.2042 58.9402 20.2326C58.9402 20.2893 58.9402 20.3177 58.9402 20.3745V27.273C58.9402 28.0681 59.5649 28.6926 60.3314 28.6926C61.098 28.6926 61.751 28.0681 61.751 27.273V20.3745C61.751 20.3177 61.751 20.2893 61.7225 20.2326C61.751 20.2042 61.751 20.1758 61.751 20.119Z" fill="url(#paint0_linear_201_5)"/>
<path d="M70.3399 14.4411C66.3369 14.4411 63.1571 17.6207 63.1571 21.6236C63.1571 25.6266 66.3369 28.6073 70.3399 28.6073C71.9583 28.6073 73.3211 28.2099 74.5418 27.188C74.5418 28.0113 75.3366 28.6073 75.9046 28.6073C76.7279 28.6073 77.3241 28.0113 77.3241 27.188V21.6236C77.3241 17.6207 74.343 14.4411 70.3399 14.4411ZM70.3399 25.8252C67.9552 25.8252 65.9395 24.0082 65.9395 21.6236C65.9395 19.2389 67.9552 17.2233 70.3399 17.2233C72.7249 17.2233 74.5418 19.2389 74.5418 21.6236C74.5418 24.0082 72.7249 25.8252 70.3399 25.8252Z" fill="url(#paint1_linear_201_5)"/>
<path d="M85.8589 14.4127C81.9409 14.4127 78.7329 17.5923 78.7329 21.5385V27.2448C78.7329 28.0113 79.3574 28.6641 80.1522 28.6641C80.9187 28.6641 81.5435 28.0113 81.5435 27.2448V21.5385C81.5435 19.1538 83.474 17.2233 85.8589 17.2233C86.6537 17.2233 87.2784 16.5703 87.2784 15.8038C87.2784 15.0373 86.6537 14.4127 85.8589 14.4127Z" fill="url(#paint2_linear_201_5)"/>
<path d="M99.1951 14.5263C98.457 14.2424 97.662 14.6114 97.3781 15.3496L94.4254 23.2702L91.4445 15.3496C91.1607 14.6114 90.3656 14.2424 89.6276 14.5263C88.8893 14.7818 88.5201 15.6051 88.804 16.3432L93.0627 27.6989C93.2615 28.2384 93.8009 28.6358 94.3972 28.6358C94.3972 28.6358 94.3972 28.6358 94.4254 28.6358C94.9934 28.6358 95.5326 28.2667 95.76 27.6989L100.018 16.3432C100.302 15.6051 99.9333 14.7818 99.1951 14.5263Z" fill="url(#paint3_linear_201_5)"/>
<path d="M103.016 28.6641C103.782 28.6641 104.407 28.0396 104.407 27.2448V15.8038C104.407 15.0373 103.782 14.4127 103.016 14.4127C102.221 14.4127 101.596 15.0373 101.596 15.8038V27.2448C101.596 28.0396 102.221 28.6641 103.016 28.6641Z" fill="url(#paint4_linear_201_5)"/>
<path d="M112.871 14.3843C108.953 14.3843 105.745 17.564 105.745 21.5101V27.2163C105.745 28.0113 106.37 28.6358 107.136 28.6358C107.931 28.6358 108.556 28.0113 108.556 27.2163V21.5101C108.556 19.1254 110.486 17.1949 112.871 17.1949C115.256 17.1949 117.186 19.1254 117.186 21.5101V27.2163C117.186 28.0113 117.811 28.6358 118.578 28.6358C119.372 28.6358 119.997 28.0113 119.997 27.2163V21.5101C119.997 17.564 116.789 14.3843 112.871 14.3843Z" fill="url(#paint5_linear_201_5)"/>
<g style="mix-blend-mode:multiply" filter="url(#filter0_f_201_5)">
<path style="mix-blend-mode:multiply" d="M15.007 33.6466C23.074 33.9144 29.6342 33.5095 29.6597 32.7423C29.6851 31.9752 23.1662 31.1362 15.0992 30.8684C7.03225 30.6006 0.472024 31.0055 0.446559 31.7727C0.421093 32.5398 6.94003 33.3788 15.007 33.6466Z" fill="url(#paint6_linear_201_5)"/>
</g>
<g style="mix-blend-mode:multiply" filter="url(#filter1_f_201_5)">
<path style="mix-blend-mode:multiply" d="M14.9858 33.1081C17.2524 33.3694 19.1103 33.403 19.1357 33.1833C19.161 32.9636 17.3441 32.5737 15.0775 32.3124C12.8109 32.0512 10.9529 32.0175 10.9276 32.2372C10.9023 32.4569 12.7192 32.8468 14.9858 33.1081Z" fill="url(#paint7_linear_201_5)"/>
</g>
<g style="mix-blend-mode:multiply" filter="url(#filter2_f_201_5)">
<path style="mix-blend-mode:multiply" d="M24.4495 33.2627C26.9344 33.2627 28.9489 33.0834 28.9489 32.8622C28.9489 32.641 26.9344 32.4617 24.4495 32.4617C21.9645 32.4617 19.9501 32.641 19.9501 32.8622C19.9501 33.0834 21.9645 33.2627 24.4495 33.2627Z" fill="url(#paint8_linear_201_5)"/>
</g>
<g style="mix-blend-mode:multiply" opacity="0.67" filter="url(#filter3_f_201_5)">
<path style="mix-blend-mode:multiply" d="M6.28743 32.9058C8.01811 33.0485 9.43584 32.9855 9.45401 32.7651C9.47218 32.5446 8.08392 32.2503 6.35324 32.1076C4.62255 31.9649 3.20483 32.0279 3.18665 32.2484C3.16848 32.4688 4.55674 32.7631 6.28743 32.9058Z" fill="url(#paint9_linear_201_5)"/>
</g>
<path d="M32.1249 19.3829C30.9571 10.2993 26.0021 7.24388 19.1483 7.54181C0.49453 8.35272 6.3339 33.0082 8.28038 33.0082C10.7135 33.0082 10.8757 26.6822 12.9844 26.6822C15.0931 26.6822 16.2286 33.0082 18.3372 33.0082C20.4458 33.0082 22.5547 26.6822 24.5011 26.6822C26.4476 26.6822 26.772 33.0082 29.2052 33.0082C30.1918 33.0082 33.0631 26.6822 32.1249 19.3829Z" fill="url(#paint10_linear_201_5)"/>
<g style="mix-blend-mode:multiply" opacity="0.5">
<path style="mix-blend-mode:multiply" d="M21.116 7.60895C33.0007 10.0942 31.387 23.7809 31.1868 26.0188" stroke="url(#paint11_linear_201_5)" stroke-width="0.138398" stroke-linecap="round" stroke-linejoin="round"/>
</g>
<g style="mix-blend-mode:multiply" opacity="0.5">
<g style="mix-blend-mode:multiply">
<path d="M6.03948 25.5948C7.35868 25.8893 9.67906 26.1837 12.1643 26.0188" stroke="#26287B" stroke-width="0.138398" stroke-linecap="round" stroke-linejoin="round"/>
</g>
</g>
<path d="M25.3211 26.4097C26.6638 26.5607 30.0443 26.4097 31.9995 25.8304" stroke="#5054AF" stroke-width="0.138398" stroke-linecap="round" stroke-linejoin="round"/>
<path d="M12.1912 25.9128C9.40843 25.9128 9.05206 31.523 8.2656 33.0153C10.0805 33.3783 10.752 29.0535 11.8887 27.6066C12.5542 26.7597 13.6682 26.9635 14.4847 27.7739C14.2491 27.2674 13.4011 25.9128 12.1912 25.9128Z" fill="url(#paint12_linear_201_5)"/>
<path d="M27.1941 27.3041C28.3717 28.8693 27.9124 32.7209 29.3847 32.9564C27.8544 33.6539 26.5461 29.5878 26.0396 28.351C25.5331 27.1143 25.0031 26.576 24.1432 26.7373C23.9548 26.7727 24.7517 26.4657 24.8264 26.4664C26.1456 26.1955 26.8662 26.8686 27.1941 27.3041Z" fill="url(#paint13_linear_201_5)"/>
<g style="mix-blend-mode:multiply" opacity="0.5">
<path style="mix-blend-mode:multiply" d="M8.81887 25.9418C8.53571 23.3314 8.28372 19.6864 9.19225 16.2647C10.1 12.8461 12.1655 9.652 16.5204 7.93464L16.4772 7.82507C12.0807 9.55883 9.99368 12.7875 9.0784 16.2345C8.16391 19.6786 8.4184 23.3422 8.70177 25.9545L8.81887 25.9418Z" fill="url(#paint14_linear_201_5)"/>
</g>
<path d="M9.18482 23.0285C6.87257 23.0285 4.99813 20.4945 4.99813 17.3687C4.99813 14.2429 6.87257 11.7089 9.18482 11.7089C11.4971 11.7089 13.3715 14.2429 13.3715 17.3687C13.3715 20.4945 11.4971 23.0285 9.18482 23.0285Z" fill="url(#paint15_linear_201_5)"/>
<path d="M8.60478 22.1208C6.27558 22.1208 4.3874 19.6516 4.3874 16.6057C4.3874 13.5599 6.27558 11.0907 8.60478 11.0907C10.934 11.0907 12.8222 13.5599 12.8222 16.6057C12.8222 19.6516 10.934 22.1208 8.60478 22.1208Z" fill="url(#paint16_linear_201_5)"/>
<g style="mix-blend-mode:multiply">
<g style="mix-blend-mode:multiply">
<path d="M8.05361 11.1543C6.991 12.4116 6.66372 17.4323 8.71319 22.0966" stroke="#2B2C8C" stroke-opacity="0.12" stroke-width="0.140667" stroke-linecap="round"/>
</g>
</g>
<path d="M7.34538 15.8765C7.74357 15.8765 8.06638 15.4326 8.06638 14.8851C8.06638 14.3376 7.74357 13.8937 7.34538 13.8937C6.94718 13.8937 6.62437 14.3376 6.62437 14.8851C6.62437 15.4326 6.94718 15.8765 7.34538 15.8765Z" fill="#17024F"/>
<path d="M7.29771 14.981L3.95467 1.76678" stroke="#4D51AC" stroke-width="0.984669" stroke-linecap="round"/>
<path d="M4.88827 3.72201C4.92361 3.93403 5.04139 3.99292 4.4878 4.12248C4.02535 4.25205 4.13221 4.0345 4.04891 3.87513C4.03341 3.67664 4.19659 3.41233 4.42898 3.39417C4.66139 3.376 4.82938 3.4511 4.88827 3.72201Z" fill="#17024F"/>
<g filter="url(#filter4_i_201_5)">
<path d="M4.45798 3.82539C5.22804 3.62226 5.67733 2.79432 5.46151 1.97614C5.24568 1.15795 4.44646 0.659353 3.67641 0.862484C2.90635 1.06562 2.45706 1.89356 2.67289 2.71174C2.88871 3.52992 3.68793 4.02852 4.45798 3.82539Z" fill="url(#paint17_linear_201_5)"/>
</g>
<path d="M22.237 25.2584C20.7323 25.5437 19.4445 25.526 18.1246 24.8785C16.8046 24.2309 16.4705 23.5212 16.4685 23.2472" stroke="url(#paint18_linear_201_5)" stroke-width="0.656447" stroke-linecap="round"/>
<g style="mix-blend-mode:multiply" opacity="0.4">
<g style="mix-blend-mode:multiply">
<path d="M28.6191 22.9682C31.5854 22.9682 33.9901 20.3579 33.9901 17.1378C33.9901 13.9178 31.5854 11.3074 28.6191 11.3074C25.6528 11.3074 23.2481 13.9178 23.2481 17.1378C23.2481 20.3579 25.6528 22.9682 28.6191 22.9682Z" fill="#5B62BD"/>
</g>
</g>
<g style="mix-blend-mode:multiply" opacity="0.4">
<g style="mix-blend-mode:multiply">
<path d="M18.9134 23.2038C21.9708 23.2038 24.4494 20.3403 24.4494 16.808C24.4494 13.2757 21.9708 10.4123 18.9134 10.4123C15.856 10.4123 13.3775 13.2757 13.3775 16.808C13.3775 20.3403 15.856 23.2038 18.9134 23.2038Z" fill="#5B62BD"/>
</g>
</g>
<path d="M24.5998 16.2491C24.5998 19.2814 26.7724 21.5681 29.2528 21.5681C31.7329 21.5681 33.9055 19.2814 33.9055 16.2491C33.9055 13.2169 31.7329 10.9301 29.2528 10.9301C26.7724 10.9301 24.5998 13.2169 24.5998 16.2491Z" fill="url(#paint19_linear_201_5)" stroke="#140344" stroke-width="2.01623"/>
<path d="M25.0532 16.2823C25.0532 19.5307 27.2059 22.0189 29.6989 22.0189C32.1918 22.0189 34.3446 19.5307 34.3446 16.2823C34.3446 13.034 32.1918 10.5458 29.6989 10.5458C27.2059 10.5458 25.0532 13.034 25.0532 16.2823Z" stroke="#D2D4F1" stroke-width="0.984669"/>
<path d="M14.6682 16.2491C14.6682 19.3003 16.8033 21.5681 19.1999 21.5681C21.5966 21.5681 23.7317 19.3003 23.7317 16.2491C23.7317 13.1979 21.5966 10.9301 19.1999 10.9301C16.8033 10.9301 14.6682 13.1979 14.6682 16.2491Z" fill="url(#paint20_linear_201_5)" stroke="#140344" stroke-width="2.01623"/>
<g filter="url(#filter5_f_201_5)">
<path d="M28.3694 19.3596L30.3034 16.1684C30.4073 15.9973 30.2841 15.7786 30.0839 15.7786H26.6994C26.5126 15.7786 26.3885 15.9716 26.4657 16.1416L27.9161 19.3328C28.0017 19.5207 28.2624 19.5361 28.3694 19.3596Z" fill="#E53360"/>
</g>
<g filter="url(#filter6_f_201_5)">
<path d="M18.483 19.3602L20.4797 16.1572C20.5863 15.9862 20.4634 15.7646 20.2619 15.7646H16.7676C16.5797 15.7646 16.4555 15.9599 16.5351 16.1301L18.0326 19.3332C18.1188 19.5176 18.3753 19.5331 18.483 19.3602Z" fill="#E53360"/>
</g>
<path d="M28.9173 18.9541L30.3529 16.5852C30.5625 16.2395 30.3135 15.7976 29.9093 15.7976H27.3969C27.0195 15.7976 26.7684 16.1875 26.9246 16.531L28.0014 18.8999C28.1738 19.2795 28.7011 19.3107 28.9173 18.9541Z" fill="#150248"/>
<path d="M18.8581 18.9506L20.3497 16.5579C20.5651 16.2123 20.3166 15.7646 19.9094 15.7646H17.2991C16.9194 15.7646 16.6684 16.1592 16.8292 16.5031L17.9479 18.8959C18.1222 19.2687 18.6404 19.2999 18.8581 18.9506Z" fill="#150248"/>
<path d="M18.6319 17.82L18.8583 17.4633C18.9596 17.3039 18.845 17.0955 18.6562 17.0955H18.2599C18.0839 17.0955 17.9681 17.279 18.0437 17.4379L18.2136 17.7946C18.2945 17.9646 18.531 17.9789 18.6319 17.82Z" fill="white"/>
<path d="M28.5684 17.9397L28.7948 17.583C28.8961 17.4236 28.7816 17.2152 28.5927 17.2152H28.1965C28.0205 17.2152 27.9046 17.3987 27.9802 17.5576L28.1501 17.9143C28.2311 18.0843 28.4674 18.0987 28.5684 17.9397Z" fill="white"/>
<path d="M26.7934 21.3074L32.1526 10.8952C32.7298 11.2839 33.1958 11.782 33.3776 12.0848L28.2422 22.1673C27.7592 22.0141 27.0054 21.5783 26.7934 21.3074Z" fill="white" fill-opacity="0.2"/>
<path d="M29.5025 22.4264L34.2492 13.5925C34.5437 14.2756 34.5908 14.7114 34.6733 15.1472L30.7746 22.2968C30.4565 22.3675 30.0561 22.4617 29.5025 22.4264Z" fill="white" fill-opacity="0.2"/>
<path d="M17.1702 21.5666L22.6826 11.1896C23.2244 11.6254 23.5424 12.0377 23.7428 12.3439L18.6779 22.2968C18.1714 22.1555 17.4529 21.7903 17.1702 21.5666Z" fill="white" fill-opacity="0.2"/>
<path d="M20.0324 22.4264L24.5319 13.8634C24.8264 14.5701 24.6968 14.7114 24.9324 15.477L21.2927 22.179C20.9982 22.2615 20.5742 22.4264 20.0324 22.4264Z" fill="white" fill-opacity="0.2"/>
<path d="M15.0796 16.2823C15.0796 19.5242 17.2618 22.0189 19.8032 22.0189C22.3446 22.0189 24.5267 19.5242 24.5267 16.2823C24.5267 13.0404 22.3446 10.5458 19.8032 10.5458C17.2618 10.5458 15.0796 13.0404 15.0796 16.2823Z" stroke="#D2D4F1" stroke-width="0.984669"/>
<path d="M22.3763 25.6061C22.5418 25.3908 22.5198 25.2071 22.5059 25.3234C22.4706 25.6179 21.3932 25.6711 21.3516 25.6768C18.6661 26.0419 16.3811 24.4518 16.2161 23.321C16.1573 23.0502 16.1926 23.4859 16.2397 23.6155C16.2986 23.804 16.6748 24.4596 17.3469 24.9112C18.0107 25.3574 18.6224 25.527 18.994 25.6408C19.9266 25.9265 20.8646 25.9029 21.4458 25.8417L21.449 25.8412C21.52 25.8339 22.2606 25.7564 22.3763 25.6061Z" fill="#757DD2"/>
<g style="mix-blend-mode:multiply" opacity="0.5">
<g style="mix-blend-mode:multiply">
<path d="M5.88633 23.8634C6.9464 24.0754 7.606 24.205 8.56006 24.205" stroke="#26287B" stroke-width="0.138398"/>
</g>
</g>
<g style="mix-blend-mode:multiply" opacity="0.5">
<g style="mix-blend-mode:multiply">
<path d="M8.08664 25.5201C8.16452 25.5147 8.2149 25.3262 8.19918 25.0991C8.18345 24.8719 8.10758 24.6922 8.0297 24.6976C7.95182 24.703 7.90144 24.8915 7.91717 25.1186C7.93289 25.3457 8.00877 25.5255 8.08664 25.5201Z" fill="#26287B"/>
</g>
</g>
<g style="mix-blend-mode:multiply" opacity="0.5">
<g style="mix-blend-mode:multiply">
<path d="M31.4459 24.0283C31.6697 24.0087 31.976 23.9576 32.1998 23.8752" stroke="#5C61BA" stroke-width="0.138398" stroke-linecap="round" stroke-linejoin="round"/>
</g>
</g>
</g>
<defs>
<filter id="filter0_f_201_5" x="-0.0224026" y="30.3169" width="30.151" height="3.88117" filterUnits="userSpaceOnUse" color-interpolation-filters="sRGB">
<feFlood flood-opacity="0" result="BackgroundImageFix"/>
<feBlend mode="normal" in="SourceGraphic" in2="BackgroundImageFix" result="shape"/>
<feGaussianBlur stdDeviation="0.234445" result="effect1_foregroundBlur_201_5"/>
</filter>
<filter id="filter1_f_201_5" x="10.4585" y="31.6233" width="9.14634" height="2.17399" filterUnits="userSpaceOnUse" color-interpolation-filters="sRGB">
<feFlood flood-opacity="0" result="BackgroundImageFix"/>
<feBlend mode="normal" in="SourceGraphic" in2="BackgroundImageFix" result="shape"/>
<feGaussianBlur stdDeviation="0.234445" result="effect1_foregroundBlur_201_5"/>
</filter>
<filter id="filter2_f_201_5" x="19.4812" y="31.9928" width="9.9366" height="1.73871" filterUnits="userSpaceOnUse" color-interpolation-filters="sRGB">
<feFlood flood-opacity="0" result="BackgroundImageFix"/>
<feBlend mode="normal" in="SourceGraphic" in2="BackgroundImageFix" result="shape"/>
<feGaussianBlur stdDeviation="0.234445" result="effect1_foregroundBlur_201_5"/>
</filter>
<filter id="filter3_f_201_5" x="2.71759" y="31.5623" width="7.20549" height="1.88877" filterUnits="userSpaceOnUse" color-interpolation-filters="sRGB">
<feFlood flood-opacity="0" result="BackgroundImageFix"/>
<feBlend mode="normal" in="SourceGraphic" in2="BackgroundImageFix" result="shape"/>
<feGaussianBlur stdDeviation="0.234445" result="effect1_foregroundBlur_201_5"/>
</filter>
<filter id="filter4_i_201_5" x="2.61879" y="0.817139" width="2.89681" height="3.05359" filterUnits="userSpaceOnUse" color-interpolation-filters="sRGB">
<feFlood flood-opacity="0" result="BackgroundImageFix"/>
<feBlend mode="normal" in="SourceGraphic" in2="BackgroundImageFix" result="shape"/>
<feColorMatrix in="SourceAlpha" type="matrix" values="0 0 0 0 0 0 0 0 0 0 0 0 0 0 0 0 0 0 127 0" result="hardAlpha"/>
<feOffset/>
<feGaussianBlur stdDeviation="0.281333"/>
<feComposite in2="hardAlpha" operator="arithmetic" k2="-1" k3="1"/>
<feColorMatrix type="matrix" values="0 0 0 0 0.884235 0 0 0 0 0.317647 0 0 0 0 0.976471 0 0 0 0.28 0"/>
<feBlend mode="normal" in2="shape" result="effect1_innerShadow_201_5"/>
</filter>
<filter id="filter5_f_201_5" x="25.9735" y="15.3097" width="4.83648" height="4.64246" filterUnits="userSpaceOnUse" color-interpolation-filters="sRGB">
<feFlood flood-opacity="0" result="BackgroundImageFix"/>
<feBlend mode="normal" in="SourceGraphic" in2="BackgroundImageFix" result="shape"/>
<feGaussianBlur stdDeviation="0.234445" result="effect1_foregroundBlur_201_5"/>
</filter>
<filter id="filter6_f_201_5" x="16.0417" y="15.2958" width="4.94616" height="4.65427" filterUnits="userSpaceOnUse" color-interpolation-filters="sRGB">
<feFlood flood-opacity="0" result="BackgroundImageFix"/>
<feBlend mode="normal" in="SourceGraphic" in2="BackgroundImageFix" result="shape"/>
<feGaussianBlur stdDeviation="0.234445" result="effect1_foregroundBlur_201_5"/>
</filter>
<linearGradient id="paint0_linear_201_5" x1="41.764" y1="17.0671" x2="120.818" y2="28.1842" gradientUnits="userSpaceOnUse">
<stop offset="0.00937679" stop-color="#878EF0"/>
<stop offset="0.809864" stop-color="#FB3569"/>
<stop offset="1" stop-color="#FB3569"/>
</linearGradient>
<linearGradient id="paint1_linear_201_5" x1="41.764" y1="17.0671" x2="120.818" y2="28.1842" gradientUnits="userSpaceOnUse">
<stop offset="0.00937679" stop-color="#878EF0"/>
<stop offset="0.809864" stop-color="#FB3569"/>
<stop offset="1" stop-color="#FB3569"/>
</linearGradient>
<linearGradient id="paint2_linear_201_5" x1="41.764" y1="17.0671" x2="120.818" y2="28.1842" gradientUnits="userSpaceOnUse">
<stop offset="0.00937679" stop-color="#878EF0"/>
<stop offset="0.809864" stop-color="#FB3569"/>
<stop offset="1" stop-color="#FB3569"/>
</linearGradient>
<linearGradient id="paint3_linear_201_5" x1="41.764" y1="17.0671" x2="120.818" y2="28.1842" gradientUnits="userSpaceOnUse">
<stop offset="0.00937679" stop-color="#878EF0"/>
<stop offset="0.809864" stop-color="#FB3569"/>
<stop offset="1" stop-color="#FB3569"/>
</linearGradient>
<linearGradient id="paint4_linear_201_5" x1="41.7639" y1="17.0671" x2="120.818" y2="28.1842" gradientUnits="userSpaceOnUse">
<stop offset="0.00937679" stop-color="#878EF0"/>
<stop offset="0.809864" stop-color="#FB3569"/>
<stop offset="1" stop-color="#FB3569"/>
</linearGradient>
<linearGradient id="paint5_linear_201_5" x1="41.764" y1="17.0671" x2="120.818" y2="28.1842" gradientUnits="userSpaceOnUse">
<stop offset="0.00937679" stop-color="#878EF0"/>
<stop offset="0.809864" stop-color="#FB3569"/>
<stop offset="1" stop-color="#FB3569"/>
</linearGradient>
<linearGradient id="paint6_linear_201_5" x1="29.6582" y1="32.7901" x2="0.44499" y2="31.8204" gradientUnits="userSpaceOnUse">
<stop stop-color="#D2D5E3"/>
<stop offset="1" stop-color="#D6D9E5" stop-opacity="0"/>
</linearGradient>
<linearGradient id="paint7_linear_201_5" x1="19.1341" y1="33.1969" x2="10.9261" y2="32.2508" gradientUnits="userSpaceOnUse">
<stop stop-color="#D2D5E3"/>
<stop offset="1" stop-color="#D6D9E5" stop-opacity="0"/>
</linearGradient>
<linearGradient id="paint8_linear_201_5" x1="28.9489" y1="32.8761" x2="19.9499" y2="32.8761" gradientUnits="userSpaceOnUse">
<stop stop-color="#D2D5E3"/>
<stop offset="1" stop-color="#D6D9E5" stop-opacity="0"/>
</linearGradient>
<linearGradient id="paint9_linear_201_5" x1="9.45287" y1="32.7789" x2="3.18551" y2="32.2622" gradientUnits="userSpaceOnUse">
<stop stop-color="#D2D5E3"/>
<stop offset="0.65239" stop-color="#D6D9E5" stop-opacity="0"/>
</linearGradient>
<linearGradient id="paint10_linear_201_5" x1="29.5077" y1="10.1519" x2="1.99637" y2="27.697" gradientUnits="userSpaceOnUse">
<stop stop-color="#7D87DA"/>
<stop offset="1" stop-color="#212183"/>
</linearGradient>
<linearGradient id="paint11_linear_201_5" x1="33.1538" y1="26.4664" x2="19.1608" y2="5.8186" gradientUnits="userSpaceOnUse">
<stop stop-color="#5C61BA"/>
<stop offset="1" stop-color="#5C61BA" stop-opacity="0"/>
</linearGradient>
<linearGradient id="paint12_linear_201_5" x1="12.7512" y1="25.9746" x2="8.48694" y2="33.1077" gradientUnits="userSpaceOnUse">
<stop stop-color="#0C0427"/>
<stop offset="1" stop-color="#180057"/>
</linearGradient>
<linearGradient id="paint13_linear_201_5" x1="26.6872" y1="26.6992" x2="26.6872" y2="33.2396" gradientUnits="userSpaceOnUse">
<stop stop-color="#0E042A"/>
<stop offset="1" stop-color="#170151"/>
</linearGradient>
<linearGradient id="paint14_linear_201_5" x1="9.06657" y1="26.3015" x2="16.1219" y2="5.10013" gradientUnits="userSpaceOnUse">
<stop stop-color="#26287B"/>
<stop offset="1" stop-color="#26287B" stop-opacity="0"/>
</linearGradient>
<linearGradient id="paint15_linear_201_5" x1="4.99813" y1="17.3687" x2="4.99813" y2="28.6883" gradientUnits="userSpaceOnUse">
<stop stop-color="#0E042E"/>
<stop offset="1" stop-color="#170152"/>
</linearGradient>
<linearGradient id="paint16_linear_201_5" x1="7.29337" y1="17.9992" x2="3.18422" y2="27.6131" gradientUnits="userSpaceOnUse">
<stop stop-color="#EFF0FF"/>
<stop offset="0.944281" stop-color="#B0B4E0"/>
</linearGradient>
<linearGradient id="paint17_linear_201_5" x1="4.9585" y1="0.774641" x2="4.04322" y2="4.10058" gradientUnits="userSpaceOnUse">
<stop stop-color="#F6688C"/>
<stop offset="1" stop-color="#FF2159"/>
</linearGradient>
<linearGradient id="paint18_linear_201_5" x1="17.5236" y1="23.2038" x2="20.268" y2="26.2662" gradientUnits="userSpaceOnUse">
<stop stop-color="#16024C"/>
<stop offset="1" stop-color="#16024C"/>
</linearGradient>
<linearGradient id="paint19_linear_201_5" x1="27.1936" y1="21.5177" x2="32.644" y2="12.6156" gradientUnits="userSpaceOnUse">
<stop stop-color="#FF2159"/>
<stop offset="1" stop-color="#FF658C"/>
</linearGradient>
<linearGradient id="paint20_linear_201_5" x1="15.1425" y1="20.9121" x2="22.2279" y2="13.0395" gradientUnits="userSpaceOnUse">
<stop stop-color="#FF2159"/>
<stop offset="0.832873" stop-color="#FF658C"/>
</linearGradient>
<clipPath id="clip0_201_5">
<rect width="120" height="34.5347" fill="white"/>
</clipPath>
</defs>
</svg>
