<svg width="131" height="49" viewBox="0 0 131 49" fill="none" xmlns="http://www.w3.org/2000/svg">
<path d="M32.415 25.472C30.554 25.278 30.589 24.242 30.471 22.265C30.15 16.542 30.11 9.20402 30.033 4.99502C29.992 2.21902 30.309 1.50702 32.805 1.22002L33.646 1.14302C33.848 0.983015 33.848 0.310015 33.61 0.153015C32.37 0.232015 31.067 0.265015 30.074 0.265015C29.278 0.265015 28.45 0.265015 27.094 0.153015C27.013 1.97902 25.907 4.16502 24.081 7.76902L20.348 15.348C19.359 17.377 18.364 19.446 17.293 21.303H17.215C16.255 19.556 15.387 17.731 14.475 15.872L9.95 6.70002C8.725 4.16501 7.726 1.69902 7.887 0.153015C6.576 0.265015 5.507 0.265015 4.591 0.265015C3.601 0.265015 2.65 0.231015 1.457 0.153015C1.137 0.310015 1.097 0.906015 1.3 1.14302L1.93 1.22002C4.351 1.62002 4.678 2.13302 4.591 4.63602C4.512 6.81502 4.352 10.188 4.152 13.484C3.921 17.419 3.723 19.596 3.483 22.222C3.245 24.995 2.686 25.277 1.022 25.472L0.148999 25.589C-0.0970014 25.791 -0.0130014 26.392 0.232999 26.581C1.585 26.507 3.007 26.469 4.275 26.469C5.783 26.469 7.334 26.507 8.682 26.581C8.96 26.469 9.002 25.83 8.726 25.589L7.215 25.472C5.662 25.356 5.431 24.721 5.431 21.783C5.431 18.413 5.587 14.872 5.707 12.456C5.831 10.152 5.948 7.84702 6.1 5.38702H6.183C7.053 7.21602 7.888 9.28202 8.726 11.102L12.289 18.768C13.204 20.711 15.105 24.606 15.791 26.703C15.866 26.828 16.067 26.865 16.144 26.865C16.306 26.865 16.461 26.828 16.536 26.703C17.256 24.879 19.046 21.154 20.826 17.654L24.357 10.709C25.153 9.16701 26.655 5.99002 26.937 5.55502H27.016L27.135 22.1C27.135 24.642 27.135 25.278 25.193 25.472L24.049 25.589C23.805 25.83 23.845 26.392 24.127 26.581C25.746 26.507 27.535 26.469 28.92 26.469C30.351 26.469 31.982 26.507 33.611 26.581C33.883 26.426 33.924 25.83 33.69 25.589L32.415 25.472Z" fill="white"/>
<path d="M44.026 8.68604C38.272 8.68604 34.229 12.738 34.229 18.012C34.229 23.015 37.878 27.019 44.026 27.019C49.619 27.019 53.672 23.132 53.672 17.778C53.672 12.924 50.415 8.68604 44.026 8.68604ZM44.905 25.825C40.325 26.218 38.089 21.982 37.739 17.907C37.262 12.332 40.214 10.127 43.063 9.88204C47.419 9.51104 49.807 13.608 50.167 17.836C50.627 23.257 47.908 25.565 44.905 25.825Z" fill="white"/>
<path d="M120.023 4.06203C120.023 2.00103 118.602 0.254028 116.965 0.254028C115.425 0.254028 115.064 1.28403 115.064 1.88903C115.064 2.63103 115.587 2.95503 116.131 2.99703C116.893 3.04203 118.115 3.70803 118.115 5.22203C118.115 6.84303 116.575 7.95603 115.102 8.62803C114.908 8.90303 115.063 9.30903 115.379 9.46203C117.877 8.71403 120.023 6.80103 120.023 4.06203Z" fill="white"/>
<path d="M126.781 16.937L124.325 15.666C122.736 14.833 121.679 13.958 121.679 12.544C121.679 11.19 122.544 9.832 124.883 9.832C127.225 9.832 128.254 11.859 128.583 13.248C128.771 13.521 129.483 13.483 129.619 13.172C129.641 11.467 129.366 9.953 129.049 9.28C127.704 9.049 126.748 8.685 125.355 8.685C121.36 8.685 119.121 10.706 119.121 13.606C119.121 15.831 120.759 17.377 122.664 18.364L124.442 19.282C126.713 20.431 127.225 21.744 127.225 23.014C127.225 24.836 125.918 25.873 123.894 25.873C121.233 25.873 119.494 23.055 119.169 21.622C118.889 21.261 118.296 21.302 118.139 21.71C118.139 23.808 118.612 25.238 118.972 25.79C119.525 26.182 121.119 27.019 123.531 27.019C127.465 27.019 130.006 25.076 130.006 21.983C130.005 19.324 128.213 17.653 126.781 16.937Z" fill="white"/>
<path d="M90.54 10C88.676 9.35901 86.727 9.12701 84.507 9.12701C81.299 9.12701 79.07 9.20501 76.846 9.35901C76.493 9.47701 76.45 10.234 76.805 10.354L77.993 10.511C78.911 10.627 78.946 11.304 78.946 13.884V22.304C78.946 25.036 78.789 25.192 77.083 25.471L76.325 25.588C76.054 25.79 76.093 26.467 76.402 26.58C77.958 26.506 79.191 26.468 80.461 26.468C81.059 26.468 81.812 26.506 82.594 26.546C83.434 26.629 84.355 26.666 85.226 26.666C87.206 26.666 89.426 26.357 91.216 25.431C94.397 23.808 96.018 20.91 96.018 17.778C96.019 14.124 94.15 11.227 90.54 10ZM85.389 25.512C82.358 25.512 81.971 24.241 81.971 21.711V12.257C81.971 11.377 81.971 10.871 82.2 10.706C82.523 10.437 83.278 10.276 84.594 10.276C89.071 10.276 92.481 12.817 92.481 17.694C92.48 22.532 90.144 25.512 85.389 25.512Z" fill="white"/>
<path d="M113.063 9.12701C111.938 9.20501 111.107 9.23901 110.228 9.23901C109.324 9.23901 108.415 9.20401 107.226 9.12701C106.825 9.28001 106.786 9.91801 107.138 10.111L107.975 10.233C108.936 10.353 108.849 10.706 108.253 11.818L106.666 14.722C105.997 15.985 105.396 16.936 104.76 18.011C104.168 16.978 103.57 15.907 102.98 14.722L101.506 11.901C100.865 10.664 100.996 10.438 101.861 10.234L102.422 10.112C102.815 9.91801 102.7 9.28101 102.378 9.12801C101.11 9.20601 100.202 9.24001 99.007 9.24001C97.58 9.24001 96.662 9.20501 95.353 9.12801C95.041 9.24001 94.964 9.87801 95.234 10.112L96.269 10.308C97.295 10.512 97.702 10.871 98.529 12.455L101.425 17.813C102.424 19.636 102.535 19.955 102.535 21.191V22.688C102.535 25.037 102.379 25.276 100.673 25.471L99.685 25.588C99.4 25.79 99.438 26.467 99.763 26.58C101.55 26.506 102.784 26.468 104.055 26.468C105.274 26.468 106.589 26.506 108.331 26.58C108.651 26.468 108.692 25.79 108.414 25.588L107.42 25.471C105.716 25.277 105.55 25.036 105.55 22.688V20.547C105.55 19.401 105.635 19.006 107.066 16.744L109.524 12.767C110.755 10.79 110.953 10.549 112.188 10.306L113.136 10.11C113.459 9.91701 113.373 9.24001 113.063 9.12701Z" fill="white"/>
<path d="M65.34 8.68604C59.589 8.68604 55.543 12.738 55.543 18.012C55.543 23.015 59.189 27.019 65.34 27.019C70.932 27.019 74.985 23.132 74.985 17.778C74.985 12.924 71.734 8.68604 65.34 8.68604ZM66.22 25.825C61.639 26.218 59.4 21.982 59.053 17.907C58.575 12.332 61.529 10.127 64.377 9.88204C68.732 9.51104 71.118 13.608 71.478 17.836C71.942 23.257 69.224 25.565 66.22 25.825Z" fill="white"/>
<path d="M4.62902 36.134H6.08902L10.791 48.06H8.75502L7.58502 45.014H3.18902L2.05402 48.06H0.0720215L4.62902 36.134ZM7.00802 43.465L6.03502 40.763C5.71002 39.79 5.53002 39.25 5.40402 38.853H5.36802C5.26002 39.267 5.08002 39.808 4.72002 40.763L3.74702 43.465H7.00802V43.465Z" fill="white"/>
<path d="M21.979 48.06L16.646 41.034C16.052 40.277 15.601 39.631 15.187 39.07H15.15C15.186 39.592 15.205 40.207 15.205 40.979V48.06H13.313V36.187H15.168L20.303 42.943C20.914 43.736 21.384 44.385 21.761 44.963H21.798C21.779 44.333 21.761 43.666 21.761 42.926V36.189H23.653V48.06H21.979Z" fill="white"/>
<path d="M30.7351 36.134H32.1931L36.8941 48.06H34.8591L33.688 45.014H29.292L28.157 48.06H26.175L30.7351 36.134ZM33.113 43.465L32.139 40.763C31.814 39.789 31.6351 39.249 31.5091 38.853H31.4711C31.3631 39.267 31.183 39.808 30.824 40.763L29.85 43.465H33.113Z" fill="white"/>
<path d="M39.418 36.187H41.308V46.457H45.579V48.061H39.42L39.418 36.187Z" fill="white"/>
<path d="M49.7031 43.338L45.7041 36.187H47.7741L50.6751 41.627H50.7111L53.5401 36.187H55.5941L51.6121 43.376V48.06H49.7021L49.7031 43.338Z" fill="white"/>
<path d="M60.3509 37.791H56.9099V36.187H66.0089L65.4679 37.791H62.2439V48.061H60.3509V37.791Z" fill="white"/>
<path d="M68.3679 36.187H70.2589V48.06H68.3679V36.187Z" fill="white"/>
<path d="M83.0311 47.338C81.7901 48.023 80.5631 48.239 79.4111 48.239C75.6441 48.239 73.5181 45.735 73.5181 42.258C73.5181 38.817 75.9701 36.079 79.6811 36.079C80.9601 36.079 82.0411 36.349 82.7251 36.675V38.439C81.8431 37.97 80.8881 37.682 79.7161 37.682C77.0501 37.682 75.5351 39.736 75.5351 42.203C75.5351 44.815 77.1021 46.637 79.6251 46.637C80.7771 46.637 81.6791 46.313 82.5081 45.843L83.0311 47.338Z" fill="white"/>
<path d="M86.1671 45.8071C86.8141 46.2411 87.7171 46.6371 88.7971 46.6371C89.8951 46.6371 90.9221 46.2221 90.9221 45.0691C90.9221 42.5641 85.7541 42.8731 85.7541 39.2881C85.7541 37.5391 87.1211 36.0811 89.5011 36.0811C90.6711 36.0811 91.6801 36.3511 92.2921 36.6771V38.3871C91.4111 37.9371 90.4911 37.6841 89.5541 37.6841C88.6551 37.6841 87.7721 38.0441 87.7721 39.1071C87.7721 41.4521 92.9241 41.1801 92.9241 44.9111C92.9241 46.9811 91.2121 48.2431 88.8341 48.2431C87.4641 48.2431 86.2381 47.8471 85.4121 47.2511L86.1671 45.8071Z" fill="white"/>
</svg>
