<svg width="59" height="48" viewBox="0 0 59 48" fill="none" xmlns="http://www.w3.org/2000/svg">
<path d="M27.2652 48C40.52 48 51.2652 37.2548 51.2652 24C51.2652 10.7452 40.52 0 27.2652 0C14.0103 0 3.26517 10.7452 3.26517 24C3.26517 37.2548 14.0103 48 27.2652 48Z" fill="#0B3D91"/>
<path d="M25.8481 4.87894C25.9967 4.87894 26.1172 4.75848 26.1172 4.60988C26.1172 4.46128 25.9967 4.34082 25.8481 4.34082C25.6995 4.34082 25.5791 4.46128 25.5791 4.60988C25.5791 4.75848 25.6995 4.87894 25.8481 4.87894Z" fill="white"/>
<path d="M28.6105 5.23766C28.7591 5.23766 28.8795 5.11719 28.8795 4.9686C28.8795 4.82 28.7591 4.69954 28.6105 4.69954C28.4619 4.69954 28.3414 4.82 28.3414 4.9686C28.3414 5.11719 28.4619 5.23766 28.6105 5.23766Z" fill="white"/>
<path d="M32.2338 10.1166C32.3824 10.1166 32.5028 9.99613 32.5028 9.84753C32.5028 9.69894 32.3824 9.57848 32.2338 9.57848C32.0852 9.57848 31.9647 9.69894 31.9647 9.84753C31.9647 9.99613 32.0852 10.1166 32.2338 10.1166Z" fill="white"/>
<path d="M12.3593 35.2287C12.5079 35.2287 12.6284 35.1082 12.6284 34.9596C12.6284 34.811 12.5079 34.6906 12.3593 34.6906C12.2107 34.6906 12.0903 34.811 12.0903 34.9596C12.0903 35.1082 12.2107 35.2287 12.3593 35.2287Z" fill="white"/>
<path d="M13.0589 37.3812C13.2075 37.3812 13.328 37.2607 13.328 37.1121C13.328 36.9635 13.2075 36.8431 13.0589 36.8431C12.9103 36.8431 12.7898 36.9635 12.7898 37.1121C12.7898 37.2607 12.9103 37.3812 13.0589 37.3812Z" fill="white"/>
<path d="M9.72257 35.484C9.83385 35.484 9.92406 35.3938 9.92406 35.2825C9.92406 35.1713 9.83385 35.0811 9.72257 35.0811C9.61128 35.0811 9.52107 35.1713 9.52107 35.2825C9.52107 35.3938 9.61128 35.484 9.72257 35.484Z" fill="white"/>
<path d="M20.6643 39.713C20.7759 39.713 20.8664 39.6225 20.8664 39.5109C20.8664 39.3993 20.7759 39.3088 20.6643 39.3088C20.5527 39.3088 20.4622 39.3993 20.4622 39.5109C20.4622 39.6225 20.5527 39.713 20.6643 39.713Z" fill="white"/>
<path d="M37.8254 36.1477C37.9367 36.1477 38.0269 36.0575 38.0269 35.9462C38.0269 35.8349 37.9367 35.7447 37.8254 35.7447C37.7141 35.7447 37.6239 35.8349 37.6239 35.9462C37.6239 36.0575 37.7141 36.1477 37.8254 36.1477Z" fill="white"/>
<path d="M42.8126 30.7312C42.9242 30.7312 43.0146 30.6407 43.0146 30.5291C43.0146 30.4175 42.9242 30.327 42.8126 30.327C42.7009 30.327 42.6105 30.4175 42.6105 30.5291C42.6105 30.6407 42.7009 30.7312 42.8126 30.7312Z" fill="white"/>
<path d="M18.3683 11.6227C18.4796 11.6227 18.5698 11.5325 18.5698 11.4212C18.5698 11.31 18.4796 11.2197 18.3683 11.2197C18.257 11.2197 18.1668 11.31 18.1668 11.4212C18.1668 11.5325 18.257 11.6227 18.3683 11.6227Z" fill="white"/>
<path d="M23.8571 7.59165C23.9684 7.59165 24.0586 7.50144 24.0586 7.39015C24.0586 7.27887 23.9684 7.18866 23.8571 7.18866C23.7458 7.18866 23.6556 7.27887 23.6556 7.39015C23.6556 7.50144 23.7458 7.59165 23.8571 7.59165Z" fill="white"/>
<path d="M23.261 7.197C23.3723 7.197 23.4625 7.10678 23.4625 6.9955C23.4625 6.88422 23.3723 6.79401 23.261 6.79401C23.1497 6.79401 23.0595 6.88422 23.0595 6.9955C23.0595 7.10678 23.1497 7.197 23.261 7.197Z" fill="white"/>
<path d="M22.7229 6.80239C22.8342 6.80239 22.9244 6.71218 22.9244 6.60089C22.9244 6.48961 22.8342 6.3994 22.7229 6.3994C22.6116 6.3994 22.5214 6.48961 22.5214 6.60089C22.5214 6.71218 22.6116 6.80239 22.7229 6.80239Z" fill="white"/>
<path d="M19.2293 12.6637C19.3406 12.6637 19.4308 12.5735 19.4308 12.4622C19.4308 12.3509 19.3406 12.2607 19.2293 12.2607C19.118 12.2607 19.0278 12.3509 19.0278 12.4622C19.0278 12.5735 19.118 12.6637 19.2293 12.6637Z" fill="white"/>
<path d="M27.3142 2.17458C27.4255 2.17458 27.5157 2.08437 27.5157 1.97309C27.5157 1.8618 27.4255 1.77159 27.3142 1.77159C27.2029 1.77159 27.1127 1.8618 27.1127 1.97309C27.1127 2.08437 27.2029 2.17458 27.3142 2.17458Z" fill="white"/>
<path d="M28.6422 7.98624C28.7534 7.98624 28.8436 7.89603 28.8436 7.78475C28.8436 7.67346 28.7534 7.58325 28.6422 7.58325C28.5309 7.58325 28.4407 7.67346 28.4407 7.78475C28.4407 7.89603 28.5309 7.98624 28.6422 7.98624Z" fill="white"/>
<path d="M26.5477 6.85141C26.659 6.85141 26.7492 6.7612 26.7492 6.64992C26.7492 6.53864 26.659 6.44843 26.5477 6.44843C26.4364 6.44843 26.3462 6.53864 26.3462 6.64992C26.3462 6.7612 26.4364 6.85141 26.5477 6.85141Z" fill="white"/>
<path d="M22.9602 8.39463C23.0715 8.39463 23.1617 8.30442 23.1617 8.19313C23.1617 8.08185 23.0715 7.99164 22.9602 7.99164C22.849 7.99164 22.7587 8.08185 22.7587 8.19313C22.7587 8.30442 22.849 8.39463 22.9602 8.39463Z" fill="white"/>
<path d="M38.7809 41.4709C38.8921 41.4709 38.9824 41.3807 38.9824 41.2694C38.9824 41.1581 38.8921 41.0679 38.7809 41.0679C38.6696 41.0679 38.5794 41.1581 38.5794 41.2694C38.5794 41.3807 38.6696 41.4709 38.7809 41.4709Z" fill="white"/>
<path d="M12.0185 36.5249C12.1302 36.5249 12.2206 36.4345 12.2206 36.3228C12.2206 36.2112 12.1302 36.1208 12.0185 36.1208C11.9069 36.1208 11.8164 36.2112 11.8164 36.3228C11.8164 36.4345 11.9069 36.5249 12.0185 36.5249Z" fill="white"/>
<path d="M26.0454 39.1259C26.1571 39.1259 26.2475 39.0354 26.2475 38.9238C26.2475 38.8122 26.1571 38.7217 26.0454 38.7217C25.9338 38.7217 25.8434 38.8122 25.8434 38.9238C25.8434 39.0354 25.9338 39.1259 26.0454 39.1259Z" fill="white"/>
<path d="M16.1931 36.3635C16.3047 36.3635 16.3952 36.2731 16.3952 36.1614C16.3952 36.0498 16.3047 35.9594 16.1931 35.9594C16.0815 35.9594 15.991 36.0498 15.991 36.1614C15.991 36.2731 16.0815 36.3635 16.1931 36.3635Z" fill="white"/>
<path d="M17.9378 39.2114C18.0494 39.2114 18.1399 39.1209 18.1399 39.0093C18.1399 38.8977 18.0494 38.8072 17.9378 38.8072C17.8262 38.8072 17.7357 38.8977 17.7357 39.0093C17.7357 39.1209 17.8262 39.2114 17.9378 39.2114Z" fill="white"/>
<path d="M30.7809 37.417C30.8922 37.417 30.9824 37.3268 30.9824 37.2155C30.9824 37.1042 30.8922 37.014 30.7809 37.014C30.6696 37.014 30.5794 37.1042 30.5794 37.2155C30.5794 37.3268 30.6696 37.417 30.7809 37.417Z" fill="white"/>
<path d="M37.8613 33.4212C37.9726 33.4212 38.0628 33.331 38.0628 33.2197C38.0628 33.1084 37.9726 33.0182 37.8613 33.0182C37.75 33.0182 37.6598 33.1084 37.6598 33.2197C37.6598 33.331 37.75 33.4212 37.8613 33.4212Z" fill="white"/>
<path d="M43.2293 35.8739C43.3406 35.8739 43.4308 35.7837 43.4308 35.6724C43.4308 35.5611 43.3406 35.4709 43.2293 35.4709C43.118 35.4709 43.0278 35.5611 43.0278 35.6724C43.0278 35.7837 43.118 35.8739 43.2293 35.8739Z" fill="white"/>
<path d="M45.0589 37.0445C45.1702 37.0445 45.2604 36.9543 45.2604 36.843C45.2604 36.7318 45.1702 36.6415 45.0589 36.6415C44.9476 36.6415 44.8574 36.7318 44.8574 36.843C44.8574 36.9543 44.9476 37.0445 45.0589 37.0445Z" fill="white"/>
<path d="M45.3596 33.8517C45.4709 33.8517 45.5611 33.7615 45.5611 33.6502C45.5611 33.5389 45.4709 33.4487 45.3596 33.4487C45.2484 33.4487 45.1581 33.5389 45.1581 33.6502C45.1581 33.7615 45.2484 33.8517 45.3596 33.8517Z" fill="white"/>
<path d="M18.6685 29.3315C18.7797 29.3315 18.87 29.2413 18.87 29.1301C18.87 29.0188 18.7797 28.9286 18.6685 28.9286C18.5572 28.9286 18.467 29.0188 18.467 29.1301C18.467 29.2413 18.5572 29.3315 18.6685 29.3315Z" fill="white"/>
<path d="M18.745 34.0269C18.8936 34.0269 19.0141 33.9065 19.0141 33.7579C19.0141 33.6093 18.8936 33.4888 18.745 33.4888C18.5964 33.4888 18.4759 33.6093 18.4759 33.7579C18.4759 33.9065 18.5964 34.0269 18.745 34.0269Z" fill="white"/>
<path d="M20.3593 37.435C20.5079 37.435 20.6284 37.3145 20.6284 37.1659C20.6284 37.0173 20.5079 36.8969 20.3593 36.8969C20.2107 36.8969 20.0903 37.0173 20.0903 37.1659C20.0903 37.3145 20.2107 37.435 20.3593 37.435Z" fill="white"/>
<path d="M39.6957 33.8834C39.8443 33.8834 39.9647 33.7629 39.9647 33.6143C39.9647 33.4657 39.8443 33.3453 39.6957 33.3453C39.5471 33.3453 39.4266 33.4657 39.4266 33.6143C39.4266 33.7629 39.5471 33.8834 39.6957 33.8834Z" fill="white"/>
<path d="M46.6553 33.4888C46.8039 33.4888 46.9244 33.3683 46.9244 33.2197C46.9244 33.0711 46.8039 32.9507 46.6553 32.9507C46.5067 32.9507 46.3862 33.0711 46.3862 33.2197C46.3862 33.3683 46.5067 33.4888 46.6553 33.4888Z" fill="white"/>
<path d="M43.2114 32.0179C43.36 32.0179 43.4804 31.8975 43.4804 31.7489C43.4804 31.6003 43.36 31.4798 43.2114 31.4798C43.0628 31.4798 42.9423 31.6003 42.9423 31.7489C42.9423 31.8975 43.0628 32.0179 43.2114 32.0179Z" fill="white"/>
<path d="M39.6957 32.1614C39.8443 32.1614 39.9647 32.041 39.9647 31.8924C39.9647 31.7438 39.8443 31.6233 39.6957 31.6233C39.5471 31.6233 39.4266 31.7438 39.4266 31.8924C39.4266 32.041 39.5471 32.1614 39.6957 32.1614Z" fill="white"/>
<path d="M32.4437 4.44125L33.1127 4.37728L32.4448 4.33961C32.4239 4.21046 32.3205 4.10942 32.1901 4.09267L32.1262 3.42661L32.0879 4.09806C31.9671 4.12496 31.8744 4.22601 31.8595 4.35157L31.1755 4.41375L31.8643 4.45082C31.8894 4.56622 31.9827 4.6565 32.0999 4.67803L32.162 5.36442L32.1985 4.67922C32.3223 4.65829 32.4203 4.56323 32.4437 4.44125Z" fill="white"/>
<path d="M21.1516 11.89L21.8206 11.826L21.1528 11.7883C21.1324 11.6592 21.0284 11.5581 20.8981 11.5414L20.8341 10.8753L20.7964 11.5468C20.675 11.5737 20.5824 11.6747 20.5674 11.8003L19.8834 11.8625L20.5722 11.8995C20.5973 12.0149 20.6906 12.1052 20.8078 12.1267L20.87 12.8131L20.907 12.1279C21.0308 12.1076 21.1288 12.0119 21.1516 11.89Z" fill="white"/>
<path d="M46.165 31.5839L46.8341 31.5199L46.1662 31.4822C46.1459 31.3531 46.0419 31.252 45.9115 31.2353L45.8475 30.5692L45.8099 31.2407C45.6891 31.2676 45.5964 31.3686 45.5815 31.4942L44.8975 31.5564L45.5863 31.5934C45.6114 31.7088 45.7046 31.7991 45.8218 31.8206L45.884 32.507L45.9211 31.8218C46.0436 31.8015 46.1417 31.7064 46.165 31.5839Z" fill="white"/>
<path d="M18.8915 41.8811L19.5605 41.8171L18.8927 41.7794C18.8717 41.6503 18.7683 41.5492 18.638 41.5325L18.574 40.867L18.5363 41.5379C18.4149 41.5648 18.3223 41.6658 18.3073 41.7914L17.6233 41.8536L18.3121 41.8906C18.3372 42.006 18.4305 42.0969 18.5477 42.1178L18.6099 42.8042L18.6469 42.119C18.7701 42.0987 18.8688 42.003 18.8915 41.8811Z" fill="white"/>
<path d="M44.0395 36.8586L44.7085 36.7946L44.0407 36.7569C44.0203 36.6278 43.9163 36.5267 43.7859 36.51L43.722 35.8439L43.6843 36.5148C43.5635 36.5417 43.4708 36.6427 43.4559 36.7683L42.7719 36.8305L43.4607 36.8676C43.4858 36.9829 43.5791 37.0732 43.6963 37.0948L43.7584 37.7812L43.7955 37.096C43.9181 37.0762 44.0167 36.9806 44.0395 36.8586Z" fill="white"/>
<path d="M32.9567 18.2511C30.1662 19.3357 27.4445 20.3037 25.148 21.0224C20.4813 22.4837 7.713 26.4395 0 31.426L0.64574 31.6771C5.34529 29.0224 8.4 28.1883 11.3363 27.2646C14.5291 26.2601 24.8508 23.8445 29.5247 22.5291C31.1037 22.0849 32.9531 21.5031 34.9118 20.7952C34.4562 20.1596 33.9755 19.5223 33.4697 18.8861C33.3004 18.6714 33.1288 18.4598 32.9567 18.2511ZM36.3659 22.9501C35.6903 23.4063 35.1241 23.7704 34.7277 24C32.4317 25.3273 21.2383 32.9686 18.6918 34.7265C16.1453 36.4843 9.07743 43.1569 6.99671 45.0942L6.92496 45.8828C13.6335 39.8559 15.7381 38.3695 18.4048 36.3408C21.7052 33.8296 28.5327 29.1838 30.8532 27.6951C33.0714 26.272 35.072 24.9632 36.8676 23.7656C36.8383 23.7166 36.809 23.6676 36.7797 23.6179C36.6445 23.3961 36.5064 23.1737 36.3659 22.9501ZM46.8526 11.8744C43.5845 13.7901 38.4335 16.1022 33.4362 18.064C33.5558 18.2105 33.6747 18.3581 33.7931 18.507C34.3516 19.2102 34.8783 19.9181 35.374 20.6266C39.3022 19.1797 43.6126 17.2377 47.0326 14.8873C45.4033 16.4311 40.0167 20.4568 36.7324 22.7007C36.9016 22.9764 37.0655 23.252 37.2239 23.5264C42.1997 20.1967 45.548 17.7459 47.499 16.107C50.1895 13.8469 56.3241 8.78863 58.6559 2.00836C54.5656 7.21075 49.7297 10.1877 46.8526 11.8744Z" fill="#FC3D21"/>
<path d="M24.177 29.9426C23.6478 29.2765 22.916 28.3845 22.3665 27.6927C21.6317 26.7677 20.9519 25.8332 20.3288 24.8998C20.1256 24.9507 19.9229 25.0015 19.7202 25.0523C20.4723 26.226 21.3076 27.3979 22.2176 28.5435C22.8825 29.3806 23.487 30.0544 23.7967 30.4735C23.8595 30.5584 23.9839 30.7462 24.1519 30.9961C24.3456 30.8646 24.5411 30.7318 24.7384 30.5979C24.5477 30.3904 24.3593 30.1722 24.177 29.9426ZM28.0395 33.4487C27.6048 33.0374 26.5507 32.3504 25.4535 31.3196C25.2114 31.4858 24.9668 31.6544 24.7217 31.8242C25.4302 32.8227 26.3952 34.049 27.151 34.4066C28.2894 34.9459 28.5961 33.9761 28.0395 33.4487ZM33.7931 18.507C27.5199 10.6111 19.8565 6.27324 16.5525 8.89865C13.9862 10.9375 15.0398 16.8963 18.577 23.1558C18.7599 23.093 18.9411 23.0314 19.1205 22.9704C15.5504 16.8717 14.5734 11.2042 16.9937 9.28071C20.0353 6.86397 27.3794 11.2185 33.4709 18.8855C34.7318 20.4723 35.8404 22.0652 36.7791 23.6179C40.3737 29.5671 41.4768 34.9471 38.9931 37.1432C38.2332 37.8152 35.9109 38.0789 32.8688 36.7097C32.8263 36.7629 32.8945 36.907 32.9477 36.9423C35.5737 37.9982 38.0891 38.4006 39.359 37.3919C42.4108 34.9668 40.0664 26.403 33.7931 18.507Z" fill="white"/>
<path d="M6.88848 19.4439H10.9064L14.2786 25.1659C14.2786 25.1659 14.2786 21.0224 14.2786 20.6995C14.2786 20.1973 13.6418 19.5426 13.4176 19.4439C13.6867 19.4439 16.0365 19.4439 16.1979 19.4439C16.0275 19.4888 15.4804 20.1524 15.4804 20.6995C15.4804 20.9686 15.4804 26.9775 15.4804 27.2645C15.4804 27.6681 16.0634 28.2242 16.3414 28.4394H12.467L9.04095 22.6905C9.04095 22.6905 9.04095 26.9775 9.04095 27.2107C9.04095 27.6592 9.48041 28.0896 9.93781 28.4574H6.97817C7.3997 28.278 7.80328 27.713 7.83916 27.2645C7.87503 26.8161 7.83916 21.0314 7.83916 20.7802C7.83916 20.2331 7.31001 19.7847 6.88848 19.4439Z" fill="white"/>
<path d="M43.6419 28.4394H48.9871C48.6912 28.3677 48.3593 28.0179 48.18 27.5515C48.0006 27.0852 45.1665 19.4439 45.1665 19.4439H43.1342C42.5578 19.8589 41.9402 20.2965 41.2807 20.7575C41.2789 20.7743 41.2771 20.791 41.2741 20.8071C41.1856 21.3453 39.5952 27.1055 39.4984 27.3901C39.3638 27.7847 38.6732 28.2242 38.3952 28.4574H41.2741C40.9871 28.1345 40.754 27.8206 40.8078 27.4618C40.8616 27.1031 41.023 26.3856 41.023 26.3856H44.0006C44.1351 26.7444 44.2356 27.0666 44.2876 27.3722C44.3504 27.7399 43.9737 28.1524 43.6419 28.4394ZM41.2921 25.2376L42.2966 21.9551L43.6239 25.2376H41.2921ZM40.8395 19.7716C40.9871 19.6627 41.1354 19.5533 41.2831 19.4439H40.5028C40.5806 19.5157 40.7091 19.6287 40.8395 19.7716Z" fill="white"/>
<path d="M20.3952 27.4618C20.449 27.1031 20.6105 26.3856 20.6105 26.3856H23.588C23.7226 26.7444 23.823 27.0666 23.875 27.3722C23.9378 27.7399 23.5611 28.1524 23.2293 28.4394H27.9354C28.0335 28.3737 28.1309 28.3079 28.2284 28.2427C28.046 28.0813 27.878 27.8391 27.7674 27.5515C27.588 27.0852 24.754 19.4439 24.754 19.4439H20.0903C20.3145 19.6502 20.9602 20.2062 20.8616 20.8071C20.7737 21.3453 19.1827 27.1055 19.0858 27.3901C18.9513 27.7847 18.2607 28.2242 17.9827 28.4574H20.8616C20.5746 28.1345 20.3414 27.8206 20.3952 27.4618ZM21.884 21.9551L23.2114 25.2376H20.8795L21.884 21.9551Z" fill="white"/>
<path d="M36.6517 23.9091C35.774 24.4938 34.8478 25.1043 33.872 25.7417C34.3097 25.9539 34.6583 26.2206 34.6918 26.565C34.754 27.2119 33.4541 27.5246 32.2792 27.3901C32.0442 27.3632 31.8135 27.3016 31.5934 27.2191C31.3495 27.3763 31.1031 27.5348 30.8532 27.695C30.5991 27.8583 30.2906 28.0592 29.9384 28.2911V29.2197C30.1716 28.7623 30.6816 28.3527 31.0774 28.3318C31.2478 28.3228 31.8398 28.8699 34.2792 28.7354C35.4631 28.6702 37.7501 27.408 37.7142 25.9551C37.6927 25.0965 37.2442 24.4269 36.6517 23.9091ZM29.9378 26.1524V27.0983C30.1537 26.9542 30.3665 26.8125 30.5752 26.6744C30.2469 26.446 30.0144 26.2325 29.9378 26.1524ZM35.8176 23.3154C35.5904 23.1808 35.3602 23.063 35.1396 22.959C33.9916 22.4209 32.7898 22.3222 32.5387 21.5958C32.3617 21.0834 32.8616 20.6092 34.0813 20.6272C35.301 20.6451 36.4311 21.3716 36.736 21.6317V19.3177C36.6463 19.4074 36.2529 19.8589 35.893 19.7841C35.2024 19.6406 34.0275 19.4535 32.6822 19.4612C31.1396 19.4702 29.8123 20.6624 29.7674 22.1698C29.7046 24.2774 31.3907 24.8514 32.3414 25.1832C32.4395 25.2173 32.5513 25.2538 32.6726 25.2926C33.5845 24.6995 34.3055 24.2427 34.7277 23.9994C35.0111 23.8361 35.3824 23.6018 35.8176 23.3154Z" fill="white"/>
</svg>
