<svg width="109" height="30" viewBox="0 0 109 30" fill="none" xmlns="http://www.w3.org/2000/svg">
<g clip-path="url(#clip0)">
<path d="M6.1128 2.93806C12.7335 -2.00677 22.0438 -0.548148 27.1128 6.10358C28.0956 7.38634 27.8887 9.30013 26.5128 10.1587C25.8724 10.5798 25.0974 10.7454 24.3409 10.6228C23.5843 10.5002 22.9013 10.0984 22.4266 9.49668C21.2524 7.94013 19.6206 6.79 17.7599 6.20749C15.8992 5.62498 13.9029 5.63928 12.0507 6.2484C10.2104 6.85541 8.61384 8.03762 7.49633 9.62076C6.37882 11.2039 5.79952 13.1042 5.84383 15.0415C5.86059 16.986 6.48917 18.8759 7.64041 20.443C8.79165 22.0102 10.4071 23.1751 12.2576 23.7725C14.0897 24.3786 16.0676 24.3833 17.9025 23.7859C19.7375 23.1885 21.3335 22.0203 22.4576 20.4519C23.4921 19.0036 25.0128 18.7346 26.4611 19.5725C27.9093 20.4001 28.0335 22.5001 27.1335 23.8139C25.7921 25.7212 24.0124 27.2785 21.944 28.355C19.8756 29.4315 17.579 29.9957 15.2473 30.0001C10.4369 30.0208 5.93693 27.8277 3.00935 23.9898C-2.06996 17.3381 -0.518239 7.87254 6.10245 2.93806H6.1128ZM25.7369 12.1036C26.2077 11.8842 26.7274 11.7907 27.2452 11.8324C27.7629 11.8741 28.2609 12.0496 28.6905 12.3415C29.1201 12.6335 29.4665 13.032 29.6959 13.498C29.9253 13.964 30.0297 14.4816 29.999 15.0001C29.968 15.5169 29.7991 16.016 29.5099 16.4454C29.2206 16.8747 28.8215 17.2187 28.3542 17.4415C27.8834 17.6609 27.3637 17.7544 26.846 17.7126C26.3282 17.6709 25.8302 17.4955 25.4006 17.2036C24.971 16.9116 24.6246 16.5131 24.3952 16.0471C24.1658 15.5811 24.0614 15.0635 24.0921 14.545C24.1231 14.0282 24.292 13.5291 24.5813 13.0997C24.8705 12.6704 25.2696 12.3264 25.7369 12.1036V12.1036Z" fill="#00D1CA"/>
<path d="M62.2448 22.3241H59.0379L54.3621 16.1172L54.3207 18.1138V22.3241H51.7965V3.10345H54.3207V14.9483L58.6034 9.17587H61.8414V9.27932L57.2172 15.4448L62.2448 22.2207V22.3241V22.3241ZM68.8655 22.5414C67.8612 22.5745 66.8829 22.2188 66.1345 21.5483C65.7659 21.1918 65.4768 20.7615 65.286 20.2855C65.0953 19.8095 65.0072 19.2986 65.0276 18.7862V11.431H62.6483V9.17587H65.0276V5.58621H67.5517V9.16552H70.8621V11.4207H67.5517V17.969C67.5517 18.8483 67.7276 19.4379 68.069 19.7586C68.4207 20.069 68.8138 20.2241 69.2586 20.2241C69.6475 20.2299 70.0328 20.1486 70.3862 19.9862L71.1828 22.1793C70.5207 22.4172 69.7552 22.531 68.8759 22.531L68.8655 22.5414ZM91.9034 22.5414C90.8956 22.5772 89.9131 22.2213 89.1621 21.5483C88.7935 21.1918 88.5044 20.7615 88.3136 20.2855C88.1229 19.8095 88.0348 19.2986 88.0552 18.7862V11.431H85.6862V9.17587H88.0552V5.58621H90.5793V9.16552H93.8897V11.4207H90.5793V17.969C90.5793 18.8483 90.7552 19.4379 91.0965 19.7586C91.4483 20.069 91.8517 20.2241 92.2862 20.2241C92.6786 20.2315 93.0676 20.1502 93.4241 19.9862L94.2103 22.1793C93.5483 22.4172 92.7827 22.531 91.9034 22.531V22.5414ZM101.472 22.6759C100.545 22.6868 99.6236 22.5148 98.7622 22.1698C97.9008 21.8248 97.1157 21.3135 96.452 20.6651C95.7882 20.0167 95.2586 19.2438 94.8935 18.3907C94.5284 17.5376 94.3349 16.621 94.3241 15.6931C94.3241 11.8448 97.531 8.7207 101.472 8.7207C103.345 8.69861 105.149 9.4205 106.489 10.7278C107.83 12.0351 108.596 13.821 108.621 15.6931C108.621 19.5517 105.414 22.6759 101.472 22.6759ZM101.472 20.1931C102.071 20.2013 102.665 20.0913 103.221 19.8695C103.777 19.6477 104.284 19.3183 104.713 18.9003C105.141 18.4823 105.483 17.9838 105.719 17.4335C105.955 16.8832 106.079 16.2917 106.086 15.6931C106.086 13.2104 104.017 11.1931 101.472 11.1931C100.874 11.1849 100.279 11.2949 99.7234 11.5167C99.1673 11.7386 98.6605 12.0679 98.2319 12.4859C97.8034 12.9039 97.4614 13.4024 97.2258 13.9527C96.9901 14.5031 96.8654 15.0945 96.8586 15.6931C96.8586 18.1759 98.9276 20.1931 101.472 20.1931ZM43.3552 22.6759C42.4273 22.6868 41.5064 22.5148 40.6449 22.1698C39.7835 21.8248 38.9985 21.3135 38.3347 20.6651C37.6709 20.0167 37.1414 19.2438 36.7763 18.3907C36.4112 17.5376 36.2177 16.621 36.2069 15.6931C36.2069 11.8448 39.4138 8.7207 43.3552 8.7207C45.2273 8.69861 47.0317 9.4205 48.372 10.7278C49.7123 12.0351 50.4789 13.821 50.5034 15.6931C50.5034 19.5517 47.2965 22.6759 43.3552 22.6759V22.6759ZM43.3552 20.1931C43.9538 20.2013 44.5481 20.0913 45.1042 19.8695C45.6602 19.6477 46.1671 19.3183 46.5956 18.9003C47.0242 18.4823 47.3661 17.9838 47.6018 17.4335C47.8374 16.8832 47.9622 16.2917 47.969 15.6931C47.969 13.2104 45.9 11.1931 43.3552 11.1931C42.7566 11.1849 42.1622 11.2949 41.6061 11.5167C41.0501 11.7386 40.5433 12.0679 40.1147 12.4859C39.6861 12.9039 39.3442 13.4024 39.1086 13.9527C38.8729 14.5031 38.7481 15.0945 38.7414 15.6931C38.7414 18.1759 40.8103 20.1931 43.3552 20.1931ZM78.569 22.7586C77.6342 22.79 76.7029 22.631 75.8315 22.2914C74.9601 21.9517 74.1669 21.4384 73.5 20.7828C72.8379 20.1062 72.319 19.3032 71.9741 18.4216C71.6293 17.54 71.4657 16.598 71.4931 15.6517C71.4931 13.6552 72.1345 12 73.4276 10.6655C74.0704 10.0086 74.843 9.49281 75.6961 9.15085C76.5492 8.8089 77.4642 8.64831 78.3828 8.67932C80.4517 8.67932 81.9207 9.34139 83.3276 10.5621C84.7345 11.7828 85.6448 14.0793 85.469 16.4069H74.1724C74.1704 16.9486 74.2935 17.4834 74.5321 17.9697C74.7708 18.456 75.1185 18.8806 75.5483 19.2104C76.4042 19.9893 77.5257 20.4113 78.6828 20.3897C80.3483 20.3897 81.7448 19.5621 82.4483 18.031H85.2C84.7394 19.5976 83.7293 20.9455 82.3552 21.8276C81.2379 22.4793 79.9759 22.7586 78.5793 22.7586H78.569ZM74.2862 14.1414H82.831C82.6241 13.2517 82.1069 12.4345 81.3 11.8138C80.4828 11.1931 79.769 10.8828 78.569 10.8828C77.5655 10.8828 76.5828 11.2345 75.869 11.8138C75.1448 12.3931 74.5241 13.1586 74.2862 14.1414Z" fill="white"/>
</g>
<defs>
<clipPath id="clip0">
<rect width="108.621" height="30" fill="white"/>
</clipPath>
</defs>
</svg>
