<svg width="100" height="41" viewBox="0 0 100 41" fill="none" xmlns="http://www.w3.org/2000/svg">
<path d="M43.7384 2.41224C43.7384 1.20612 43.5748 0.454767 42.123 0H1.6154C0.756578 0.217497 0.224929 0.731582 0 1.56203V38.7738C0.143136 39.4461 0.490753 39.9602 1.08375 40.3358H42.6547C43.4726 39.8218 43.7384 39.0704 43.7384 38.1609V2.41224ZM23.0859 31.8139C22.4929 32.3082 21.9408 32.8619 21.4091 33.4155C21.1842 33.6528 21.0615 33.633 20.8366 33.4155C20.1209 32.6444 19.3439 31.9128 18.6486 31.1416C18.4237 30.8846 18.1988 30.8055 17.8716 30.8055C14.6408 30.8055 11.3896 30.8055 8.15878 30.8253C7.77026 30.8253 7.48399 30.7264 7.21816 30.4496C6.64562 29.7971 6.07307 29.1249 5.45963 28.5119C5.21426 28.2549 5.09157 28.0176 5.09157 27.6617C5.11201 24.9133 5.09157 22.1847 5.09157 19.4363C5.09157 16.7671 5.11201 14.078 5.07112 11.4087C5.07112 10.9144 5.2347 10.5387 5.56187 10.2026C6.21621 9.51056 6.87055 8.85807 7.50444 8.14626C7.66802 7.96831 7.81116 7.98808 7.9543 7.98808C11.7576 7.98808 15.561 7.98808 19.3643 7.96831C19.896 7.96831 20.1413 8.30444 20.3663 8.6208C20.7957 9.21397 21.3478 9.66874 21.8181 10.2026C22.2066 10.6574 22.3702 11.0528 22.3702 11.6262C22.3497 16.8264 22.3497 22.0265 22.3702 27.2267C22.3702 27.9583 22.043 28.4526 21.5523 28.8876C21.3069 29.1249 21.2046 29.283 21.4909 29.5599C22.043 30.1135 22.5338 30.7264 23.0654 31.2998C23.3721 31.5371 23.3517 31.5964 23.0859 31.8139ZM39.158 21.0181V27.7408C39.158 28.1165 39.0558 28.3735 38.7695 28.6503C38.1561 29.2435 37.5631 29.8762 36.9905 30.4892C36.7656 30.7264 36.5202 30.8253 36.1726 30.8055C33.1054 30.7857 30.0586 30.7857 26.9914 30.8055C26.6438 30.8055 26.4598 30.7067 26.2349 30.4298C25.6419 29.6983 24.8444 29.1446 24.2718 28.3933C24.1083 28.156 24.0265 27.9583 24.0265 27.7012C24.0265 23.2129 24.0469 18.7443 24.0265 14.256C24.0265 13.7814 24.1696 13.6826 24.6399 13.6826C25.5396 13.7221 26.4393 13.7221 27.3391 13.6826C27.8503 13.6628 27.9729 13.8012 27.9729 14.2955C27.9525 18.1709 27.9525 22.0265 27.9525 25.9019C27.9525 26.7522 27.9525 26.7522 28.8522 26.7522C30.7539 26.7522 32.676 26.7324 34.5777 26.7719C35.0889 26.7719 35.2525 26.6533 35.2525 26.1392C35.232 22.2243 35.2525 18.3093 35.232 14.3944C35.232 13.8012 35.3956 13.6628 35.9681 13.7023C36.827 13.7616 37.6858 13.7419 38.5241 13.7023C39.0149 13.6826 39.1785 13.8012 39.158 14.2955C39.1376 16.5298 39.158 18.7839 39.158 21.0181Z" fill="white"/>
<path d="M99.0759 16.2929C98.442 15.5415 97.8285 14.889 96.6016 14.9879C94.8227 15.1263 93.0028 15.1263 91.2034 14.9879C89.7515 14.8693 88.7291 15.324 87.8703 16.3918C87.4 16.9652 87.032 17.499 87.0524 18.3097C87.1137 21.3349 87.0933 24.3601 87.0728 27.3655C87.0728 28.3146 86.9093 29.2834 87.9521 29.8963C88.0135 29.9359 88.0135 30.0743 88.0748 30.1138C88.6269 30.5093 88.8723 31.32 89.7106 31.32H97.3991C97.7467 31.32 97.9512 31.2013 98.1557 30.9245C98.7078 30.1336 99.219 29.2834 99.8938 28.5716V28.4332C96.7652 28.4332 93.6367 28.4134 90.5081 28.453C90.0174 28.453 89.8538 28.3541 89.8742 27.8598C89.9151 26.97 89.9151 26.0803 89.8742 25.1905C89.8538 24.7555 89.9969 24.6566 90.4263 24.6566C93.5753 24.6764 96.7243 24.6566 99.8733 24.6566V17.0838C99.5871 16.8861 99.3417 16.5895 99.0759 16.2929ZM96.7448 21.8094C95.661 21.7896 94.5977 21.8094 93.514 21.8094C92.4711 21.8094 91.4487 21.7896 90.4059 21.8094C90.0583 21.8094 89.8947 21.7699 89.8947 21.3546C89.9151 20.3265 89.9151 19.3181 89.8947 18.2899C89.8947 17.934 90.0378 17.8747 90.365 17.8747C92.4916 17.8945 94.6386 17.8945 96.7652 17.8747C97.1333 17.8747 97.2151 17.9933 97.1946 18.3295C97.1742 19.3576 97.1742 20.366 97.1946 21.3942C97.2355 21.7501 97.0924 21.8094 96.7448 21.8094ZM59.9996 16.0358C59.836 15.937 59.7542 15.759 59.6316 15.5811C59.3657 15.2054 59.0181 14.9879 58.466 14.9879C55.9509 15.0275 53.4358 14.9879 50.9002 15.0077C50.4708 15.0077 50.3277 14.9088 50.3481 14.4738C50.389 13.7818 50.3277 13.0897 50.3686 12.3779C50.389 12.0418 50.2664 11.8045 50.021 11.587C49.1417 10.7764 48.2624 9.94593 47.3832 9.13525V28.4332C47.3832 28.6309 47.4241 28.7891 47.5672 28.9473C48.1193 29.5404 48.651 30.1336 49.1622 30.7466C49.428 31.0432 49.6938 31.1816 50.1437 31.1816C52.2498 31.1618 54.3764 31.1618 56.4826 31.1618C57.3414 31.1618 58.282 31.3793 59.0181 31.0827C59.7542 30.7861 60.245 29.9754 60.8789 29.4218C61.1856 29.145 61.3083 28.8682 61.3083 28.4727C61.2879 25.3487 61.2265 22.2049 61.3288 19.0808C61.3696 17.8154 61.1243 16.7872 59.9996 16.0358ZM58.3433 18.3888C58.3229 19.9706 58.3433 21.5721 58.3433 23.1539C58.3433 24.6962 58.3229 26.2384 58.3433 27.7807C58.3433 28.1761 58.282 28.3343 57.8117 28.3343C55.5011 28.3146 53.1904 28.3146 50.8593 28.3343C50.4095 28.3343 50.3481 28.1959 50.3481 27.8202C50.3686 24.6764 50.3686 21.5128 50.3481 18.369C50.3481 17.934 50.4913 17.8747 50.8798 17.8747C53.1904 17.8945 55.5011 17.8945 57.8321 17.8747C58.282 17.8747 58.3433 18.0131 58.3433 18.3888ZM77.36 16.0952C77.2169 16.0161 77.176 15.7986 77.0533 15.6997C76.7261 15.4427 76.5625 15.0077 75.99 15.0077C72.8615 15.0274 69.7329 15.0275 66.6248 15.0275C66.4203 15.0275 66.1954 14.9879 66.0727 15.1856C65.7046 15.7986 65.1116 16.2138 64.6209 16.7081C64.3551 16.9652 64.2733 17.2024 64.2733 17.5583C64.2937 19.4367 64.2733 21.2953 64.2733 23.1737C64.2733 24.4391 64.396 25.7046 64.2528 26.9503C64.0483 28.6902 64.5595 30.015 66.0114 31.0432C66.2976 31.2409 66.543 31.3793 66.8906 31.3793C69.7738 31.3595 72.6365 31.3397 75.5197 31.3991C76.2558 31.4188 76.7261 31.142 77.0942 30.6477C77.3805 30.2523 77.7076 29.9161 78.0757 29.5998C78.362 29.3427 78.4642 29.0659 78.4642 28.6902C78.4438 25.408 78.4029 22.1258 78.4847 18.8435C78.4847 17.6967 78.362 16.7674 77.36 16.0952ZM75.6015 23.1737C75.6015 24.7357 75.581 26.2978 75.6015 27.8598C75.6015 28.2355 75.4993 28.3343 75.1107 28.3343C72.5547 28.3146 69.9783 28.3146 67.4223 28.3343C67.0338 28.3343 66.9315 28.2355 66.9315 27.8598C66.952 24.7357 66.952 21.5919 66.9315 18.4679C66.9315 18.0922 67.0338 17.9933 67.4223 17.9933C69.9783 18.0131 72.5547 18.0131 75.1107 17.9933C75.4993 17.9933 75.6015 18.0922 75.6015 18.4679V23.1737ZM84.1079 11.9232C83.2491 11.0532 82.3902 10.1832 81.4087 9.19457V30.8059C81.4087 31.2211 81.511 31.3793 81.9608 31.3397C82.5743 31.3002 83.1673 31.3002 83.7807 31.3397C84.1692 31.3595 84.251 31.2211 84.251 30.8652C84.2306 24.7357 84.251 18.6063 84.251 12.457C84.251 12.2791 84.2715 12.1011 84.1079 11.9232Z" fill="white"/>
<path d="M17.8138 12.0018C15.0942 12.0216 12.3746 12.0216 9.65501 12.0018C9.1847 12.0018 9.04156 12.1007 9.04156 12.5752C9.06201 14.8491 9.06201 17.1427 9.06201 19.4165C9.06201 21.7299 9.08246 24.0235 9.04156 26.3369C9.04156 26.8114 9.1847 26.9103 9.65501 26.9103C12.3746 26.8905 15.0942 26.8905 17.8138 26.9103C18.2432 26.9103 18.3863 26.8114 18.3863 26.3764C18.3659 21.7694 18.3659 17.1624 18.3863 12.5357C18.3863 12.1007 18.2432 12.0018 17.8138 12.0018Z" fill="white"/>
</svg>
