<svg width="231" height="98" viewBox="0 0 231 98" fill="none" xmlns="http://www.w3.org/2000/svg">
<g clip-path="url(#clip0)">
<path fill-rule="evenodd" clip-rule="evenodd" d="M195.564 53.7332L178.447 63.8974L200.611 62.3933L202.318 40.0449L195.564 53.7332Z" fill="url(#paint0_linear)"/>
<path fill-rule="evenodd" clip-rule="evenodd" d="M200.646 62.3785L198.741 49.2304L193.552 56.0821L200.646 62.3785Z" fill="url(#paint1_linear)"/>
<path fill-rule="evenodd" clip-rule="evenodd" d="M200.672 62.3785L186.717 61.2829L178.521 63.869L200.672 62.3785Z" fill="url(#paint2_linear)"/>
<path fill-rule="evenodd" clip-rule="evenodd" d="M178.541 63.872L182.027 52.4506L174.355 54.0911L178.541 63.872Z" fill="url(#paint3_linear)"/>
<path fill-rule="evenodd" clip-rule="evenodd" d="M193.552 56.1197L190.344 43.5543L181.163 52.1597L193.552 56.1197Z" fill="url(#paint4_linear)"/>
<path fill-rule="evenodd" clip-rule="evenodd" d="M201.59 43.7313L192.912 36.6436L190.495 44.4561L201.59 43.7313Z" fill="url(#paint5_linear)"/>
<path fill-rule="evenodd" clip-rule="evenodd" d="M197.532 34.1167L192.427 36.9373L189.208 34.0789L197.532 34.1167Z" fill="url(#paint6_linear)"/>
<path fill-rule="evenodd" clip-rule="evenodd" d="M172.336 57.922L174.475 54.0225L172.745 49.3771L172.336 57.922Z" fill="url(#paint7_linear)"/>
<path fill-rule="evenodd" clip-rule="evenodd" d="M172.63 49.2302L174.37 54.1662L181.931 52.4698L190.564 44.4469L193 36.7086L189.164 34L182.643 36.4408C180.588 38.3519 176.6 42.1334 176.457 42.2045C176.315 42.2771 173.824 46.9846 172.63 49.2302Z" fill="white"/>
<path fill-rule="evenodd" clip-rule="evenodd" d="M178.74 40.3628C183.193 35.9473 188.934 33.3386 191.137 35.5615C193.339 37.7844 191.004 43.1864 186.551 47.6004C182.097 52.0143 176.428 54.7668 174.226 52.544C172.023 50.3226 174.286 44.7768 178.74 40.3628Z" fill="url(#paint8_linear)"/>
<path fill-rule="evenodd" clip-rule="evenodd" d="M178.541 63.8672L182 52.4092L193.488 56.0999C189.334 59.9948 184.714 63.2876 178.541 63.8672Z" fill="url(#paint9_linear)"/>
<path fill-rule="evenodd" clip-rule="evenodd" d="M190.58 44.4245L193.529 56.1063C196.999 52.458 200.113 48.5359 201.638 43.6846L190.58 44.4245Z" fill="url(#paint10_linear)"/>
<path fill-rule="evenodd" clip-rule="evenodd" d="M201.607 43.7435C202.788 40.1815 203.06 35.0714 197.494 34.1227L192.928 36.6452L201.607 43.7435Z" fill="url(#paint11_linear)"/>
<path fill-rule="evenodd" clip-rule="evenodd" d="M172.336 57.8703C172.5 63.7493 176.741 63.8369 178.548 63.8883L174.375 54.1418L172.336 57.8703Z" fill="#9E1209"/>
<path fill-rule="evenodd" clip-rule="evenodd" d="M190.596 44.4422C193.262 46.081 198.635 49.3722 198.744 49.4327C198.914 49.5281 201.061 45.8117 201.548 43.7114L190.596 44.4422Z" fill="url(#paint12_radial)"/>
<path fill-rule="evenodd" clip-rule="evenodd" d="M181.995 52.4092L186.619 61.331C189.354 59.848 191.495 58.0413 193.456 56.106L181.995 52.4092Z" fill="url(#paint13_radial)"/>
<path fill-rule="evenodd" clip-rule="evenodd" d="M174.356 54.1538L173.701 61.9558C174.938 63.6444 176.638 63.7914 178.422 63.6595C177.132 60.4471 174.553 54.0237 174.356 54.1538Z" fill="url(#paint14_linear)"/>
<path fill-rule="evenodd" clip-rule="evenodd" d="M192.901 36.6645L202.087 37.9538C201.597 35.8762 200.091 34.5355 197.525 34.1163L192.901 36.6645Z" fill="url(#paint15_linear)"/>
<path d="M51.0591 54.9407C51.0591 54.3257 50.6706 53.8225 50.0045 53.8225C49.5605 53.8225 49.2274 54.102 49.0054 54.4934C48.2283 55.8353 47.3957 57.0654 46.2856 58.1836C45.7305 55.2762 42.5667 52.872 40.5684 50.971C41.0125 49.629 41.5676 48.0635 41.5676 46.6098C41.5676 45.6593 41.29 44.8206 40.1799 44.8206C38.2927 44.8206 37.016 48.2313 37.016 49.7968C37.016 50.4677 37.127 51.1387 37.4046 51.7537C37.1777 52.3124 35.7622 54.7536 33.9146 57.0654C31.6941 59.8438 29 62.5646 29 63.3275C29 63.9985 29.2012 64.3454 29.8673 64.3454C30.4409 64.3454 33.3046 61.5458 35.6492 58.8126C37.6153 56.5206 39.1448 54.2609 39.3473 53.8784C40.735 55.0525 43.6768 57.3449 43.6768 59.3018C43.6768 59.6932 43.6213 60.1405 43.4548 60.476C42.5667 61.1469 41.3455 61.5383 40.2354 61.5383C38.7367 61.5383 37.8486 60.6437 37.1825 60.6437C36.5165 60.6437 36.0169 61.2588 36.0169 61.9297C36.0169 63.9426 39.0143 64.8371 40.6239 64.8371C42.6222 64.8371 44.8979 63.4951 45.8415 61.706C47.4512 60.6996 51.0591 56.9535 51.0591 54.9407Z" fill="white"/>
<path d="M51.4735 55.5559C52.8612 52.4248 54.7484 49.7411 55.8585 46.4422H59.8549C60.521 46.4422 61.0761 45.8831 61.0761 45.2122C61.0761 43.5908 57.6346 43.8703 56.4691 43.8144C56.5801 43.0875 56.6356 42.3047 56.6356 41.5779C56.6356 39.9565 56.4136 36.6577 54.1934 36.6577C51.5845 36.6577 49.8639 41.5779 49.2533 43.7026C48.0876 43.6467 45.2568 43.2553 45.2568 45.0444C45.2568 46.5541 47.6436 46.4422 48.6427 46.4422C48.3097 48.5669 48.1432 50.6357 48.1432 52.7603C48.1432 56.4505 48.7537 62.8803 53.6938 62.8803C57.0242 62.8803 60.6875 58.9665 62.1863 56.2268C62.2973 56.0032 62.4084 55.7237 62.4084 55.4441C62.4084 54.7731 61.9641 54.0463 61.2426 54.0463C59.5774 54.0463 57.6903 59.6934 54.2489 59.6934C52.5282 59.6934 51.4735 57.1214 51.418 55.6677L51.4735 55.5559ZM51.9731 43.8144C52.4172 42.4725 53.0277 41.1306 53.8048 39.9005C53.9713 40.4597 54.0268 41.0747 54.0268 41.6338C54.0268 42.3607 53.9158 43.0875 53.7493 43.8144H51.9731ZM53.0832 46.4982C52.4172 48.4551 51.6401 50.412 50.752 52.313C50.752 50.3561 51.0295 48.3992 51.418 46.4982H53.0832Z" fill="white"/>
<path d="M81.0626 55.0526C81.0626 54.4375 80.674 53.8225 79.9525 53.8225C77.8433 53.8225 77.5657 60.532 73.847 60.532C71.7932 60.532 71.4046 57.2891 71.4046 55.7235C71.4046 54.6612 71.7375 53.6548 71.7375 52.5925C71.7375 52.2011 71.6267 51.8097 71.3492 51.5301C71.5156 51.2506 71.6267 50.971 71.6267 50.6356C71.6267 49.07 69.795 48.2872 68.4627 48.2872C63.8003 48.2872 58.6382 55.4999 58.6382 59.861C58.6382 62.6006 60.7474 64.8372 63.5228 64.8372C66.076 64.8372 68.2406 62.8245 69.5175 60.7556C70.4055 62.2652 71.7932 63.3276 73.5695 63.3276C77.5103 63.3276 80.674 58.9664 81.0626 55.388V55.0526ZM68.9067 51.5861C68.4073 52.3129 68.2406 53.2634 68.2406 54.158C68.2406 54.773 68.4073 55.388 68.4073 56.0031C68.4073 58.2955 66.3535 61.9298 63.8003 61.9298C62.4126 61.9298 61.58 60.9234 61.58 59.5814C61.58 57.0095 65.0769 51.3065 67.9077 51.3065C68.2963 51.3065 68.6292 51.4183 68.9067 51.5861Z" fill="white"/>
<path d="M99.6522 55.5003C99.6522 54.7734 99.2082 54.2143 98.4864 54.2143C96.4883 54.2143 95.2117 61.7065 91.9923 61.7065C88.44 61.7065 92.2698 52.0337 87.2742 52.0337C85.1096 52.0337 83.1114 54.0465 81.7791 55.5562C81.7791 54.0465 82.1121 49.0704 79.9475 49.0704C78.9484 49.0704 78.1712 49.8531 78.1712 50.8595C78.1712 52.0337 78.6709 53.3197 78.6709 54.5497C78.6709 55.668 78.3376 59.5818 77.6718 60.4764C77.3942 60.8678 77.061 61.371 77.061 61.8183C77.061 62.7129 78.0047 63.1044 78.7263 63.1044C80.225 63.1044 84.1659 54.997 86.3862 54.997C86.7748 54.997 86.8856 55.3884 86.9413 55.668C87.7182 58.9668 86.3308 64.7816 91.5483 64.7816C95.1006 64.7816 98.4864 59.1904 99.5412 56.2271C99.5966 56.0034 99.6522 55.7239 99.6522 55.5003Z" fill="white"/>
<path d="M118.246 55.4442C118.246 54.7732 117.802 54.1582 117.081 54.1582C115.193 54.1582 114.805 60.0289 111.641 60.0289C109.976 60.0289 108.977 57.5688 108.588 56.2269C110.697 51.8099 113.029 45.7714 113.029 40.7952C113.029 39.0619 112.696 35.4277 110.309 35.4277C106.701 35.4277 105.313 44.2058 105.036 46.9455C104.758 46.8896 104.536 46.8896 104.259 46.8896C99.4296 46.9455 96.4878 55.0528 96.4878 59.0225C96.4878 61.3149 97.3758 63.9428 100.095 63.9428C102.649 63.9428 105.091 61.5945 106.479 59.6935C107.534 61.4267 109.365 62.9923 111.474 62.9923C115.027 62.9923 117.302 58.7989 118.191 55.8915C118.246 55.7796 118.246 55.6119 118.246 55.4442ZM110.309 41.1307C110.309 44.5413 109.088 48.6229 107.755 51.754C107.755 51.3626 107.7 50.9712 107.7 50.5239C107.7 47.281 108.366 41.4662 110.087 38.6706C110.253 39.4533 110.309 40.292 110.309 41.1307ZM99.3739 58.4075C99.3739 56.2269 101.761 49.7411 103.926 49.7411C104.314 49.7411 104.536 49.9648 104.869 50.1884V50.4121C104.869 52.5367 104.925 54.4937 105.424 56.5624C104.592 57.8484 102.427 61.0354 100.817 61.0354C99.5961 61.0354 99.3739 59.358 99.3739 58.4075Z" fill="white"/>
<path d="M136.84 55.0526C136.84 54.4375 136.451 53.8225 135.73 53.8225C133.621 53.8225 133.343 60.532 129.624 60.532C127.571 60.532 127.182 57.2891 127.182 55.7235C127.182 54.6612 127.515 53.6548 127.515 52.5925C127.515 52.2011 127.404 51.8097 127.127 51.5301C127.293 51.2506 127.404 50.971 127.404 50.6356C127.404 49.07 125.572 48.2872 124.24 48.2872C119.578 48.2872 114.416 55.4999 114.416 59.861C114.416 62.6006 116.525 64.8372 119.3 64.8372C121.853 64.8372 124.018 62.8245 125.295 60.7556C126.183 62.2652 127.571 63.3276 129.347 63.3276C133.288 63.3276 136.451 58.9664 136.84 55.388V55.0526ZM124.684 51.5861C124.185 52.3129 124.018 53.2634 124.018 54.158C124.018 54.773 124.185 55.388 124.185 56.0031C124.185 58.2955 122.131 61.9298 119.578 61.9298C118.19 61.9298 117.357 60.9234 117.357 59.5814C117.357 57.0095 120.854 51.3065 123.685 51.3065C124.074 51.3065 124.407 51.4183 124.684 51.5861Z" fill="white"/>
<path d="M151.82 55.5559C151.82 54.9409 151.265 54.4377 150.655 54.4377C148.712 54.4377 148.101 60.5321 144.438 60.5321C142.828 60.5321 142.495 58.7988 142.495 57.5129C142.495 56.5624 142.995 52.9281 143.494 52.3131C143.994 51.7539 144.383 51.3066 144.383 50.5239C144.383 49.7411 143.883 48.9583 143.05 48.9583C140.664 48.9583 141.441 53.3754 137.999 53.3754C137.888 53.3754 137.777 53.3195 137.611 53.3195C138.277 51.8098 139.221 50.1884 139.221 48.511C139.221 47.7842 138.665 46.9455 137.888 46.9455C135.89 46.9455 134.447 51.9776 134.447 53.599C134.447 53.9904 134.502 54.3259 134.669 54.6613C134.502 54.9968 134.336 55.4441 134.336 55.7796C134.336 56.4505 135.002 56.8978 135.613 56.8978C136.057 56.8978 136.445 56.6183 136.667 56.2269C137.888 56.3946 138.888 55.9473 139.942 55.3323C139.776 56.3387 139.72 57.401 139.72 58.4075C139.72 61.0353 140.553 63.6073 143.605 63.6073C147.491 63.6073 150.655 59.358 151.709 55.9473C151.765 55.8355 151.82 55.6678 151.82 55.5559Z" fill="white"/>
<path d="M170.338 55.4442C170.338 54.7732 169.894 54.1582 169.173 54.1582C167.285 54.1582 166.897 60.0289 163.733 60.0289C162.068 60.0289 161.069 57.5688 160.68 56.2269C162.789 51.8099 165.121 45.7714 165.121 40.7952C165.121 39.0619 164.787 35.4277 162.401 35.4277C158.793 35.4277 157.405 44.2058 157.128 46.9455C156.85 46.8896 156.628 46.8896 156.351 46.8896C151.522 46.9455 148.58 55.0528 148.58 59.0225C148.58 61.3149 149.468 63.9428 152.188 63.9428C154.741 63.9428 157.183 61.5945 158.571 59.6935C159.625 61.4267 161.457 62.9923 163.567 62.9923C167.119 62.9923 169.394 58.7989 170.283 55.8915C170.338 55.7796 170.338 55.6119 170.338 55.4442ZM162.401 41.1307C162.401 44.5413 161.18 48.6229 159.847 51.754C159.847 51.3626 159.792 50.9712 159.792 50.5239C159.792 47.281 160.458 41.4662 162.179 38.6706C162.345 39.4533 162.401 40.292 162.401 41.1307ZM151.466 58.4075C151.466 56.2269 153.853 49.7411 156.018 49.7411C156.406 49.7411 156.628 49.9648 156.961 50.1884V50.4121C156.961 52.5367 157.017 54.4937 157.516 56.5624C156.684 57.8484 154.519 61.0354 152.909 61.0354C151.688 61.0354 151.466 59.358 151.466 58.4075Z" fill="white"/>
</g>
<defs>
<linearGradient id="paint0_linear" x1="198.677" y1="66.6162" x2="192.353" y2="55.4497" gradientUnits="userSpaceOnUse">
<stop stop-color="#FB7655"/>
<stop offset="0.41" stop-color="#E42B1E"/>
<stop offset="0.99" stop-color="#990000"/>
<stop offset="1" stop-color="#990000"/>
</linearGradient>
<linearGradient id="paint1_linear" x1="201.828" y1="57.2363" x2="193.676" y2="51.7664" gradientUnits="userSpaceOnUse">
<stop stop-color="#871101"/>
<stop offset="0.99" stop-color="#911209"/>
<stop offset="1" stop-color="#911209"/>
</linearGradient>
<linearGradient id="paint2_linear" x1="195.306" y1="66.955" x2="187.155" y2="61.4854" gradientUnits="userSpaceOnUse">
<stop stop-color="#871101"/>
<stop offset="0.99" stop-color="#911209"/>
<stop offset="1" stop-color="#911209"/>
</linearGradient>
<linearGradient id="paint3_linear" x1="178.192" y1="53.2769" x2="179.456" y2="61.4891" gradientUnits="userSpaceOnUse">
<stop stop-color="white"/>
<stop offset="0.23" stop-color="#E57252"/>
<stop offset="0.46" stop-color="#DE3B20"/>
<stop offset="0.99" stop-color="#A60003"/>
<stop offset="1" stop-color="#A60003"/>
</linearGradient>
<linearGradient id="paint4_linear" x1="186.883" y1="45.6085" x2="187.349" y2="53.9895" gradientUnits="userSpaceOnUse">
<stop stop-color="white"/>
<stop offset="0.23" stop-color="#E4714E"/>
<stop offset="0.56" stop-color="#BE1A0D"/>
<stop offset="0.99" stop-color="#A80D00"/>
<stop offset="1" stop-color="#A80D00"/>
</linearGradient>
<linearGradient id="paint5_linear" x1="194.596" y1="37.8618" x2="195.99" y2="43.8684" gradientUnits="userSpaceOnUse">
<stop stop-color="white"/>
<stop offset="0.18" stop-color="#E46342"/>
<stop offset="0.4" stop-color="#C82410"/>
<stop offset="0.99" stop-color="#A80D00"/>
<stop offset="1" stop-color="#A80D00"/>
</linearGradient>
<linearGradient id="paint6_linear" x1="190.34" y1="35.7467" x2="196.346" y2="32.7436" gradientUnits="userSpaceOnUse">
<stop stop-color="white"/>
<stop offset="0.54" stop-color="#C81F11"/>
<stop offset="0.99" stop-color="#BF0905"/>
<stop offset="1" stop-color="#BF0905"/>
</linearGradient>
<linearGradient id="paint7_linear" x1="172.927" y1="51.183" x2="173.421" y2="56.1324" gradientUnits="userSpaceOnUse">
<stop stop-color="white"/>
<stop offset="0.31" stop-color="#DE4024"/>
<stop offset="0.99" stop-color="#BF190B"/>
<stop offset="1" stop-color="#BF190B"/>
</linearGradient>
<linearGradient id="paint8_linear" x1="169.528" y1="57.4701" x2="192.766" y2="33.5747" gradientUnits="userSpaceOnUse">
<stop stop-color="#BD0012"/>
<stop offset="0.07" stop-color="white"/>
<stop offset="0.17" stop-color="white"/>
<stop offset="0.27" stop-color="#C82F1C"/>
<stop offset="0.33" stop-color="#820C01"/>
<stop offset="0.46" stop-color="#A31601"/>
<stop offset="0.72" stop-color="#B31301"/>
<stop offset="0.99" stop-color="#E82609"/>
<stop offset="1" stop-color="#E82609"/>
</linearGradient>
<linearGradient id="paint9_linear" x1="187.328" y1="59.8803" x2="180.329" y2="58.1528" gradientUnits="userSpaceOnUse">
<stop stop-color="#8C0C01"/>
<stop offset="0.54" stop-color="#990C00"/>
<stop offset="0.99" stop-color="#A80D0E"/>
<stop offset="1" stop-color="#A80D0E"/>
</linearGradient>
<linearGradient id="paint10_linear" x1="199.351" y1="51.4797" x2="193.133" y2="45.9065" gradientUnits="userSpaceOnUse">
<stop stop-color="#7E110B"/>
<stop offset="0.99" stop-color="#9E0C00"/>
<stop offset="1" stop-color="#9E0C00"/>
</linearGradient>
<linearGradient id="paint11_linear" x1="201.635" y1="41.2539" x2="198.538" y2="37.9425" gradientUnits="userSpaceOnUse">
<stop stop-color="#79130D"/>
<stop offset="0.99" stop-color="#9E120B"/>
<stop offset="1" stop-color="#9E120B"/>
</linearGradient>
<radialGradient id="paint12_radial" cx="0" cy="0" r="1" gradientUnits="userSpaceOnUse" gradientTransform="translate(194.101 46.0127) scale(7.62006)">
<stop stop-color="#A80D00"/>
<stop offset="0.99" stop-color="#7E0E08"/>
<stop offset="1" stop-color="#7E0E08"/>
</radialGradient>
<radialGradient id="paint13_radial" cx="0" cy="0" r="1" gradientUnits="userSpaceOnUse" gradientTransform="translate(183.548 56.0546) scale(10.1298)">
<stop stop-color="#A30C00"/>
<stop offset="0.99" stop-color="#800E08"/>
<stop offset="1" stop-color="#800E08"/>
</radialGradient>
<linearGradient id="paint14_linear" x1="176.372" y1="63.8602" x2="173.848" y2="55.2965" gradientUnits="userSpaceOnUse">
<stop stop-color="#8B2114"/>
<stop offset="0.43" stop-color="#9E100A"/>
<stop offset="0.99" stop-color="#B3100C"/>
<stop offset="1" stop-color="#B3100C"/>
</linearGradient>
<linearGradient id="paint15_linear" x1="195.737" y1="35.4824" x2="201.396" y2="37.9804" gradientUnits="userSpaceOnUse">
<stop stop-color="#B31000"/>
<stop offset="0.44" stop-color="#910F08"/>
<stop offset="0.99" stop-color="#791C12"/>
<stop offset="1" stop-color="#791C12"/>
</linearGradient>
<clipPath id="clip0">
<rect width="173.317" height="30.8374" fill="white" transform="translate(29 34)"/>
</clipPath>
</defs>
</svg>
